<svg width="288" height="225" viewBox="0 0 288 225" fill="none" xmlns="http://www.w3.org/2000/svg">
<path d="M288 0H0V225H288V0Z" fill="#E3EBF0"/>
<path d="M216.18 96.78C216.18 62.13 187.41 34.07 151.98 34.05C117.16 34.05 87.9802 62.32 87.7202 96.3601C87.5902 112.84 92.7202 129.06 104.47 139.13C116.22 149.2 116.91 156.94 119.09 166.19C119.494 167.844 120.444 169.313 121.788 170.358C123.131 171.404 124.788 171.965 126.49 171.95H177.6C179.296 171.962 180.947 171.404 182.287 170.365C183.628 169.325 184.58 167.866 184.99 166.22C187.22 156.94 186.36 150.47 199.84 138.73C211.23 128.75 216.2 112.87 216.18 96.78Z" fill="white"/>
<path d="M176.982 174.444L127.342 174.496C125.465 174.498 123.944 176.022 123.946 177.9L123.946 178.1C123.948 179.978 125.472 181.498 127.35 181.496L176.99 181.444C178.867 181.442 180.388 179.919 180.386 178.041L180.386 177.841C180.384 175.963 178.86 174.442 176.982 174.444Z" fill="#4285F4"/>
<path d="M176.989 181.255L127.349 181.306C125.471 181.308 123.951 182.832 123.953 184.71L123.953 184.91C123.955 186.788 125.479 188.308 127.357 188.306L176.997 188.255C178.874 188.253 180.395 186.729 180.393 184.851L180.393 184.651C180.391 182.773 178.867 181.253 176.989 181.255Z" fill="#4285F4"/>
<path d="M177.007 188.065L127.367 188.117C125.489 188.119 123.968 189.642 123.97 191.52L123.971 191.72C123.973 193.598 125.496 195.119 127.374 195.117L177.014 195.065C178.892 195.063 180.412 193.539 180.411 191.661L180.41 191.461C180.408 189.583 178.885 188.063 177.007 188.065Z" fill="#4285F4"/>
<path d="M100.1 156.4C100.1 156.4 92.8297 179.53 88.2197 195.23C101.09 195.41 114.02 195.66 128.68 195.66L123.55 129.77L100.1 156.4Z" fill="#F3BC97"/>
<path d="M86.0002 166.71C82.1602 166.41 78.6202 165.71 76.8202 164.06C66.5002 147.45 81.2702 104.72 81.2702 104.72L99.4002 98.1299L121.27 113.23L119.27 143.87C113.79 160.52 94.3702 167.34 85.9902 166.71" fill="#F8CEAD"/>
<path d="M117.109 128.67C116.109 123.73 117.109 111.06 112.109 111.67C108.439 112.09 95.9294 111.99 91.7294 111.79C81.7294 111.31 64.0794 106.55 64.8194 91.39C65.1894 83.82 72.8894 77.64 77.6594 75.92C82.4294 74.2 90.5894 73.83 95.1994 75.69C105.999 80 117.149 89.93 122.999 89.05C132.899 87.56 141.999 100.34 141.489 108.62C140.909 117.47 129.099 142.11 124.839 145.62L117.109 128.67Z" fill="#4285F4"/>
<path d="M123.24 122.94C119.4 122.78 115.52 126.54 114.57 131.33C113.62 136.12 115.97 140.13 119.81 140.33C123.65 140.53 127.54 136.73 128.48 131.93C129.42 127.13 127.08 123.13 123.24 122.98" fill="#F8CEAD"/>
<path d="M161.77 162.83V102.83C161.77 102.83 161.77 95.0601 167.34 90.3401C174.73 84.0701 186.41 88.6501 186.98 98.3401C186.98 98.6501 186.98 98.9601 186.98 99.2801C186.98 109.52 178.86 109.52 174.98 109.52H148.52" stroke="#00BE64" stroke-width="2.83" stroke-miterlimit="10" stroke-linecap="round"/>
</svg>
