<svg width="288" height="225" viewBox="0 0 288 225" fill="none" xmlns="http://www.w3.org/2000/svg">
<path d="M288 0H0V225H288V0Z" fill="#E3EBF0"/>
<path d="M60 52.6899H174.76C176.556 52.6899 178.334 53.0439 179.994 53.7315C181.653 54.4191 183.16 55.4269 184.43 56.6973C185.699 57.9678 186.706 59.4759 187.392 61.1356C188.079 62.7953 188.431 64.5739 188.43 66.3699V160.32H70.43V85.2299L60 85.2999V52.6899Z" fill="#FAFBFB"/>
<path d="M70.3398 92.56H49.2598V62.4C49.2598 61.1223 49.5119 59.8572 50.0018 58.6772C50.4916 57.4972 51.2095 56.4254 52.1144 55.5234C53.0192 54.6213 54.0932 53.9067 55.2747 53.4205C56.4562 52.9343 57.7221 52.686 58.9998 52.69H60.6598C61.9349 52.69 63.1975 52.9411 64.3756 53.4291C65.5537 53.9171 66.6241 54.6323 67.5258 55.534C68.4274 56.4356 69.1427 57.5061 69.6306 58.6841C70.1186 59.8622 70.3698 61.1249 70.3698 62.4L70.3398 92.56Z" fill="#00BE64"/>
<path d="M74.29 151.93H199.55V169.12C199.55 172.59 198.172 175.918 195.72 178.372C193.267 180.827 189.94 182.207 186.47 182.21H84C81.4248 182.21 78.955 181.187 77.134 179.366C75.3131 177.545 74.29 175.075 74.29 172.5V151.93Z" fill="#AADFF5"/>
<path d="M70.5498 116.13H91.6398V170.83C91.6372 173.847 90.4373 176.74 88.3037 178.874C86.1702 181.007 83.2772 182.207 80.2598 182.21C77.6846 182.21 75.2148 181.187 73.3938 179.366C71.5728 177.545 70.5498 175.075 70.5498 172.5V116.13Z" fill="#FAFBFB"/>
<path d="M221.343 50.5623C223.328 52.1519 224.601 54.4651 224.881 56.9931C225.161 59.521 224.425 62.0567 222.836 64.0422L182.213 114.784C182.142 114.873 182.055 114.946 181.956 115C181.857 115.055 181.748 115.089 181.636 115.102C181.524 115.114 181.41 115.104 181.302 115.073C181.193 115.041 181.092 114.989 181.004 114.918L167.335 103.975C167.247 103.904 167.173 103.817 167.119 103.718C167.064 103.619 167.03 103.511 167.017 103.398C167.005 103.286 167.015 103.172 167.046 103.064C167.078 102.956 167.13 102.854 167.201 102.766L207.824 52.024C209.413 50.0385 211.727 48.7658 214.255 48.4858C216.783 48.2058 219.318 48.9415 221.304 50.5311L221.343 50.5623Z" fill="#4285F4"/>
<path d="M162.799 122.66L165.999 105.51C166.028 105.365 166.092 105.229 166.188 105.117C166.284 105.004 166.407 104.918 166.546 104.866C166.685 104.815 166.834 104.8 166.98 104.824C167.126 104.847 167.264 104.908 167.379 105L180.119 115.2C180.236 115.291 180.326 115.411 180.382 115.548C180.437 115.684 180.457 115.833 180.438 115.979C180.418 116.126 180.361 116.264 180.272 116.382C180.183 116.5 180.065 116.592 179.929 116.65L163.999 123.6C163.856 123.665 163.698 123.689 163.542 123.67C163.386 123.652 163.238 123.59 163.115 123.494C162.991 123.397 162.896 123.268 162.841 123.121C162.785 122.974 162.771 122.815 162.799 122.66Z" fill="#DDF2FB"/>
<path d="M162.8 122.67L163.28 120.09C163.306 119.945 163.37 119.809 163.464 119.696C163.559 119.583 163.681 119.496 163.82 119.445C163.958 119.394 164.107 119.379 164.253 119.403C164.398 119.426 164.535 119.487 164.65 119.58L166.56 121.12C166.676 121.211 166.766 121.331 166.822 121.467C166.878 121.604 166.897 121.753 166.878 121.899C166.859 122.045 166.802 122.184 166.713 122.302C166.624 122.419 166.505 122.512 166.37 122.57L163.99 123.57C163.851 123.629 163.698 123.651 163.548 123.632C163.398 123.614 163.255 123.556 163.134 123.465C163.013 123.373 162.919 123.252 162.86 123.112C162.802 122.973 162.781 122.82 162.8 122.67Z" fill="#4285F4"/>
<path d="M161.18 78.1799H92.4903C90.0492 78.1799 88.0703 80.1588 88.0703 82.5999V83.4099C88.0703 85.851 90.0492 87.8299 92.4903 87.8299H161.18C163.621 87.8299 165.6 85.851 165.6 83.4099V82.5999C165.6 80.1588 163.621 78.1799 161.18 78.1799Z" fill="#E3EBF0"/>
<path d="M141.68 100.13H92.4903C90.0492 100.13 88.0703 102.109 88.0703 104.55V105.36C88.0703 107.801 90.0492 109.78 92.4903 109.78H141.68C144.121 109.78 146.1 107.801 146.1 105.36V104.55C146.1 102.109 144.121 100.13 141.68 100.13Z" fill="#E3EBF0"/>
<path d="M155.68 122.08H92.4903C90.0492 122.08 88.0703 124.059 88.0703 126.5V127.31C88.0703 129.751 90.0492 131.73 92.4903 131.73H155.68C158.121 131.73 160.1 129.751 160.1 127.31V126.5C160.1 124.059 158.121 122.08 155.68 122.08Z" fill="#E3EBF0"/>
</svg>
