<svg width="288" height="225" viewBox="0 0 288 225" fill="none" xmlns="http://www.w3.org/2000/svg">
<path d="M288 0H0V225H288V0Z" fill="#E3EBF0"/>
<path d="M188.39 104.51H187.81C164.846 104.51 146.23 123.124 146.23 146.085C146.23 169.046 164.846 187.66 187.81 187.66H188.39C211.354 187.66 229.97 169.046 229.97 146.085C229.97 123.124 211.354 104.51 188.39 104.51Z" fill="#AADFF5"/>
<path d="M71.9999 133.33H164.7V76.2701C164.71 71.2379 163.73 66.2528 161.814 61.5996C159.898 56.9464 157.084 52.7161 153.533 49.1503C149.982 45.5846 145.763 42.7531 141.118 40.8176C136.473 38.8822 131.492 37.8806 126.46 37.8701H71.9999C61.8437 37.9019 52.1156 41.9642 44.9528 49.1644C37.7901 56.3647 33.7786 66.1139 33.7999 76.2701V94.9301C33.7786 105.086 37.7901 114.836 44.9528 122.036C52.1156 129.236 61.8437 133.298 71.9999 133.33Z" fill="white"/>
<path d="M208.545 182.458L205.01 143.48L187.68 159.05C187.68 159.05 187.38 176.61 185.32 186.65C185.275 186.962 185.276 187.278 185.321 187.587C186.145 187.635 186.975 187.66 187.81 187.66H188.39C195.703 187.66 202.575 185.772 208.545 182.458Z" fill="#F3BC97"/>
<path d="M182.07 169.42C179.93 168.93 178 168.2 177.13 167.14C172.73 156.86 179.44 133.39 179.44 133.39L195.44 131.74L206.44 142.14L203.88 158.61C203.509 160.819 202.593 162.901 201.216 164.668C199.838 166.435 198.042 167.831 195.99 168.73C191.471 170.217 186.634 170.455 181.99 169.42" fill="#F8CEAD"/>
<path d="M204.44 146C204.65 144.636 204.533 143.241 204.1 141.93C203.875 141.278 203.477 140.699 202.949 140.255C202.42 139.811 201.781 139.519 201.1 139.41C199.61 139.26 198.93 140.48 197.64 140.79C194.31 141.56 192.25 138.79 191.27 136.05C191.19 135.793 191.075 135.547 190.93 135.32C190.763 135.105 190.556 134.925 190.32 134.79C189.757 134.436 189.119 134.219 188.458 134.157C187.796 134.094 187.129 134.188 186.51 134.43C185.01 135.04 184.61 136.43 183.45 137.43C182.763 137.945 181.958 138.278 181.108 138.398C180.259 138.519 179.393 138.423 178.59 138.12C177.457 137.768 176.45 137.097 175.69 136.187C174.929 135.277 174.446 134.167 174.3 132.99C174.179 132.32 174.246 131.629 174.495 130.995C174.744 130.361 175.165 129.809 175.71 129.4C176.15 129.11 176.71 128.92 176.98 128.47C177.75 127.17 176.09 126.34 175.53 125.47C175.284 125.173 175.13 124.81 175.086 124.427C175.041 124.044 175.109 123.656 175.28 123.31C176.034 121.146 177.429 119.262 179.28 117.91C180.14 117.182 181.207 116.742 182.33 116.65C184.08 116.6 184.89 117.93 186.33 118.23C187.77 118.53 188.98 117.45 189.82 116.5C190.324 115.946 190.932 115.498 191.61 115.18C192.288 114.863 193.022 114.682 193.77 114.65C195.384 114.633 196.96 115.142 198.26 116.1C199.26 117.01 199.18 118.61 200.31 119.48C202.62 121.26 205.31 119.03 207.84 119.16C208.882 119.273 209.896 119.564 210.84 120.02C211.821 120.38 212.722 120.93 213.49 121.64C214.758 122.769 215.803 124.126 216.57 125.64C217.22 127.35 216.1 127.97 215.63 129.52C214.43 133.43 217.53 132.52 219.49 134.52C219.919 134.972 220.245 135.512 220.445 136.103C220.646 136.693 220.715 137.32 220.65 137.94C220.519 139.186 220.064 140.375 219.33 141.39C218.12 143.2 214.41 143.49 216.45 146.32C217.45 147.74 219.45 147.9 219.99 149.76C220.127 150.234 220.165 150.731 220.099 151.22C220.034 151.709 219.867 152.179 219.61 152.6C219.099 153.448 218.366 154.14 217.49 154.6C217.031 154.879 216.521 155.063 215.99 155.14C214.88 155.26 213.13 154.51 212.23 155.45C211.33 156.39 212.08 158.16 211.56 159.24C211.299 159.775 210.926 160.248 210.468 160.627C210.009 161.007 209.474 161.284 208.9 161.44C206.71 162.02 206.13 162.1 205.72 159.73C205.33 157.08 204.33 147 204.44 146Z" fill="#00BE64"/>
<path d="M206.999 147C204.999 146.78 202.789 148.65 202.119 151.16C201.449 153.67 202.559 155.89 204.589 156.16C206.619 156.43 208.799 154.51 209.469 151.99C210.139 149.47 208.999 147.19 206.999 147Z" fill="#F8CEAD"/>
<path d="M130.44 66.3899H63.3799C61.7452 66.3899 60.4199 67.7151 60.4199 69.3499V69.9799C60.4199 71.6147 61.7452 72.9399 63.3799 72.9399H130.44C132.075 72.9399 133.4 71.6147 133.4 69.9799V69.3499C133.4 67.7151 132.075 66.3899 130.44 66.3899Z" fill="#4285F4"/>
<path d="M130.44 80.99H63.3799C61.7452 80.99 60.4199 82.3152 60.4199 83.95V84.58C60.4199 86.2148 61.7452 87.54 63.3799 87.54H130.44C132.075 87.54 133.4 86.2148 133.4 84.58V83.95C133.4 82.3152 132.075 80.99 130.44 80.99Z" fill="#4285F4"/>
<path d="M130.44 95.5901H63.3799C61.7452 95.5901 60.4199 96.9153 60.4199 98.5501V99.1801C60.4199 100.815 61.7452 102.14 63.3799 102.14H130.44C132.075 102.14 133.4 100.815 133.4 99.1801V98.5501C133.4 96.9153 132.075 95.5901 130.44 95.5901Z" fill="#4285F4"/>
</svg>
