<svg width="288" height="157" viewBox="0 0 288 157" fill="none" xmlns="http://www.w3.org/2000/svg">
<path d="M131.79 27.61H108.2V52.27H131.79V27.61Z" fill="#00BE64"/>
<path d="M162.18 58.17C161.24 57.23 159.37 57.29 158 58.31C156.63 59.33 156.3 60.89 157.24 61.83C158.18 62.77 160.06 62.7 161.42 61.69C162.78 60.68 163.13 59.1 162.18 58.17Z" fill="white"/>
<path d="M130.36 137.33H184C184.975 137.33 185.937 137.103 186.809 136.665C187.68 136.228 188.438 135.593 189.02 134.811C189.603 134.029 189.995 133.122 190.165 132.162C190.335 131.201 190.279 130.215 190 129.28C188.314 123.841 187.307 118.216 187 112.53C186.72 105.45 184.71 96.53 190.34 92.26C202.19 83.26 205.04 68.56 205.04 68.56C208.15 15.7 137.04 23.07 137.04 23.07L137.41 29.07C137.41 29.07 171.22 28.72 181 41.9C189.15 52.9 183.31 70.16 171.37 76.82C170.094 77.6388 168.64 78.1363 167.13 78.27L149.13 77.85C145.39 77.7528 141.675 78.4718 138.241 79.9571C134.808 81.4423 131.74 83.6581 129.25 86.45C124.93 91.32 122.55 99.89 121.16 107.59C119.352 117.626 116.992 127.554 114.09 137.33H128.56" fill="#4285F4"/>
<path d="M152 66.9999L150.19 74.8899C149.46 77.6099 148.78 81.3399 151.72 82.5099L156.37 83.1699C159.18 83.4599 163.09 82.7799 163.19 79.8199L162.76 58.8199L152 66.9999Z" fill="#F3BC97"/>
<path d="M149.56 73.72C148.354 73.7229 147.172 73.3755 146.16 72.72C142.38 66.47 148 50.57 148 50.57L154.74 48.17L162.82 53.87L162.68 64.74C162.643 66.2004 162.244 67.6287 161.518 68.8961C160.792 70.1636 159.761 71.2303 158.52 72C155.729 73.3714 152.62 73.9655 149.52 73.72" fill="#F8CEAD"/>
<path d="M161.75 59.79C161.39 57.94 161.28 53.91 159.41 54.11C158.04 54.25 153.41 54.18 151.84 54.11C148.12 53.9 142.66 52.72 142.98 47.06C143.14 44.24 147.56 42.55 149.36 42.06C157.81 39.6 163.36 45.61 165.36 46.51C173.87 50.35 169.86 59.33 168.06 62.39C167.06 64.16 164.56 65.7 162.96 67L161.75 59.79Z" fill="#FC463D"/>
<path d="M83.7101 112.77H60.1201V137.43H83.7101V112.77Z" fill="#00BE64"/>
<path d="M114.8 112.77H91.21V137.43H114.8V112.77Z" fill="white"/>
<path d="M100.62 88.11H77.0298V112.77H100.62V88.11Z" fill="#AADFF5"/>
<path d="M129.6 88.11H106.01V112.77H129.6V88.11Z" fill="#FC463D"/>
<path d="M120.38 63.45H96.79V88.11H120.38V63.45Z" fill="white"/>
<path d="M165.542 63.2778C166.495 61.6276 166.314 59.7393 165.137 59.06C163.96 58.3807 162.234 59.1676 161.282 60.8178C160.329 62.4679 160.51 64.3562 161.687 65.0355C162.864 65.7149 164.59 64.9279 165.542 63.2778Z" fill="#F8CEAD"/>
<path d="M145.84 112.77H122.25V137.43H145.84V112.77Z" fill="#F6F6F6"/>
<path d="M66.3563 120.581C66.3563 119.927 66.5635 119.388 66.978 118.964C67.3974 118.539 67.9342 118.327 68.5884 118.327C69.2525 118.327 69.7893 118.542 70.1988 118.971C70.6132 119.396 70.8205 119.947 70.8205 120.626V121.158C70.8205 121.817 70.6108 122.357 70.1913 122.776C69.7768 123.191 69.2475 123.398 68.6034 123.398C67.9542 123.398 67.4174 123.191 66.993 122.776C66.5685 122.357 66.3563 121.8 66.3563 121.106V120.581ZM67.39 121.158C67.39 121.548 67.4998 121.87 67.7195 122.124C67.9392 122.374 68.2339 122.499 68.6034 122.499C68.9579 122.499 69.2425 122.377 69.4573 122.132C69.677 121.887 69.7868 121.553 69.7868 121.128V120.581C69.7868 120.192 69.6795 119.87 69.4647 119.615C69.25 119.361 68.9579 119.233 68.5884 119.233C68.2189 119.233 67.9268 119.361 67.712 119.615C67.4973 119.87 67.39 120.202 67.39 120.611V121.158ZM71.6669 126.716C71.6669 126.062 71.8741 125.525 72.2886 125.106C72.708 124.681 73.2448 124.469 73.899 124.469C74.5531 124.469 75.0899 124.679 75.5094 125.098C75.9288 125.518 76.1385 126.074 76.1385 126.768V127.3C76.1385 127.954 75.9288 128.494 75.5094 128.918C75.0949 129.338 74.5631 129.547 73.9139 129.547C73.2648 129.547 72.728 129.34 72.3035 128.926C71.8791 128.506 71.6669 127.949 71.6669 127.255V126.716ZM72.7005 127.3C72.7005 127.695 72.8104 128.019 73.0301 128.274C73.2498 128.524 73.5444 128.648 73.9139 128.648C74.2735 128.648 74.5606 128.526 74.7753 128.281C74.99 128.032 75.0974 127.695 75.0974 127.27V126.716C75.0974 126.322 74.9875 125.999 74.7678 125.75C74.5531 125.5 74.2635 125.375 73.899 125.375C73.5444 125.375 73.2548 125.5 73.0301 125.75C72.8104 125.994 72.7005 126.327 72.7005 126.746V127.3ZM68.918 128.566L68.1315 128.072L73.457 119.548L74.2435 120.042L68.918 128.566Z" fill="white"/>
<path d="M135.75 23C135.75 23 126.1 21.47 125 21.59C123.9 21.71 121.41 25.59 121.41 25.59L122.01 31.36C122.01 31.36 122.79 35.29 123.2 33.98C123.588 32.1399 123.878 30.2806 124.07 28.41L124.69 32.54C124.69 32.54 126 33 126 31C125.98 29.8046 126.163 28.6144 126.54 27.48L128.11 29.81C128.87 30.7109 129.941 31.2928 131.11 31.44C132.75 31.44 135.86 29.44 135.86 29.44C135.86 29.44 137.22 24.87 135.75 23Z" fill="#F8CEAD"/>
<path d="M115.81 83.01H101.35V68.55" stroke="#4285F4" stroke-width="0.71" stroke-miterlimit="10" stroke-linecap="round"/>
<path d="M103.67 79.81C106.18 82 106.25 71 108.82 71C111.69 71 111.21 81.79 113.48 79.59" stroke="#4285F4" stroke-width="0.71" stroke-miterlimit="10" stroke-linecap="round"/>
<path d="M124.91 36.26L124.37 36.44C124.299 36.3423 124.222 36.2488 124.14 36.16L124.39 35.66C124.421 35.6011 124.44 35.5365 124.446 35.4702C124.451 35.4039 124.444 35.3371 124.423 35.2738C124.403 35.2104 124.37 35.1518 124.326 35.1014C124.283 35.0509 124.23 35.0097 124.17 34.98L121.55 33.64C121.491 33.6089 121.425 33.5899 121.358 33.5841C121.291 33.5783 121.224 33.5858 121.159 33.6063C121.095 33.6267 121.036 33.6597 120.985 33.7032C120.933 33.7468 120.891 33.8001 120.86 33.86L120.62 34.34H120.24L120.08 33.83C120.037 33.7034 119.946 33.5988 119.826 33.539C119.706 33.4791 119.568 33.4687 119.44 33.51L116.63 34.42C116.567 34.4403 116.508 34.4732 116.457 34.5165C116.407 34.5599 116.365 34.613 116.336 34.6726C116.306 34.7323 116.288 34.7972 116.284 34.8638C116.279 34.9303 116.288 34.997 116.31 35.06L116.47 35.57L116.19 35.81L115.71 35.57C115.651 35.5391 115.587 35.5202 115.521 35.5146C115.454 35.5089 115.387 35.5165 115.324 35.537C115.261 35.5575 115.202 35.5905 115.152 35.6339C115.101 35.6773 115.06 35.7304 115.03 35.79L113.69 38.42C113.659 38.479 113.641 38.5435 113.635 38.6098C113.629 38.6762 113.637 38.7429 113.657 38.8063C113.678 38.8696 113.711 38.9282 113.754 38.9787C113.798 39.0291 113.851 39.0704 113.91 39.1L114.41 39.35C114.41 39.47 114.41 39.59 114.41 39.71L113.88 39.88C113.752 39.9213 113.645 40.0119 113.583 40.1318C113.521 40.2518 113.509 40.3914 113.55 40.52L114.46 43.33C114.504 43.4567 114.595 43.5612 114.715 43.6211C114.835 43.681 114.973 43.6914 115.1 43.65L115.67 43.47L115.88 43.72L115.61 44.25C115.551 44.3696 115.54 44.5078 115.581 44.635C115.622 44.7622 115.712 44.8681 115.83 44.93L118.46 46.27C118.519 46.301 118.584 46.3198 118.65 46.3255C118.716 46.3311 118.783 46.3235 118.847 46.303C118.91 46.2825 118.969 46.2496 119.019 46.2061C119.069 46.1627 119.111 46.1096 119.14 46.05L119.42 45.5H119.74L119.93 46.08C119.95 46.1444 119.982 46.2043 120.025 46.256C120.068 46.3077 120.12 46.3503 120.18 46.3811C120.24 46.4119 120.305 46.4303 120.372 46.4353C120.439 46.4403 120.507 46.4317 120.57 46.41L123.37 45.5C123.435 45.4808 123.495 45.4487 123.546 45.4058C123.598 45.3628 123.641 45.3099 123.671 45.2502C123.702 45.1904 123.721 45.1251 123.726 45.058C123.731 44.991 123.722 44.9237 123.7 44.86L123.51 44.27L123.75 44.07L124.3 44.35C124.359 44.381 124.424 44.3998 124.49 44.4055C124.556 44.4111 124.623 44.4035 124.687 44.383C124.75 44.3625 124.809 44.3296 124.859 44.2861C124.909 44.2427 124.951 44.1896 124.98 44.13L126.32 41.5C126.351 41.4411 126.37 41.3765 126.376 41.3102C126.381 41.2439 126.374 41.1771 126.353 41.1138C126.333 41.0504 126.3 40.9918 126.256 40.9414C126.213 40.8909 126.16 40.8497 126.1 40.82L125.57 40.55V40.22L126.13 40.03C126.259 39.9887 126.366 39.8982 126.428 39.7782C126.489 39.6582 126.501 39.5187 126.46 39.39L125.54 36.59C125.521 36.5268 125.489 36.468 125.447 36.4171C125.405 36.3662 125.353 36.3242 125.294 36.2935C125.236 36.2628 125.172 36.244 125.106 36.2383C125.04 36.2325 124.973 36.2399 124.91 36.26ZM122.57 39.06C122.738 39.5735 122.749 40.125 122.603 40.6449C122.457 41.1647 122.16 41.6296 121.749 41.9806C121.339 42.3317 120.834 42.5531 120.298 42.617C119.761 42.6808 119.218 42.5842 118.737 42.3394C118.256 42.0945 117.858 41.7124 117.594 41.2414C117.329 40.7704 117.211 40.2316 117.253 39.6932C117.295 39.1549 117.496 38.6411 117.83 38.2169C118.164 37.7926 118.617 37.4771 119.13 37.31C119.471 37.1978 119.831 37.1541 120.188 37.1814C120.546 37.2087 120.895 37.3065 121.214 37.4692C121.534 37.6319 121.819 37.8561 122.051 38.1292C122.284 38.4022 122.46 38.7186 122.57 39.06V39.06Z" stroke="white" stroke-width="0.71" stroke-miterlimit="10"/>
<path d="M110.4 100.57H125.21" stroke="white" stroke-width="0.71" stroke-miterlimit="10"/>
<path d="M111.05 98.6301V94.0701H113.34V98.6301" stroke="white" stroke-width="0.71" stroke-miterlimit="10"/>
<path d="M114.86 98.63V96.88H117.22V98.63" stroke="white" stroke-width="0.71" stroke-miterlimit="10"/>
<path d="M118.65 98.63V94.92H120.94V98.63" stroke="white" stroke-width="0.71" stroke-miterlimit="10"/>
<path d="M122.69 98.63V91.98H124.98V98.63" stroke="white" stroke-width="0.71" stroke-miterlimit="10"/>
<path d="M124.98 102.24V106.8H122.69V102.24" stroke="white" stroke-width="0.71" stroke-miterlimit="10"/>
<path d="M120.96 102.24V104H118.67V102.24" stroke="white" stroke-width="0.71" stroke-miterlimit="10"/>
<path d="M117.18 102.24V105.96H114.89V102.24" stroke="white" stroke-width="0.71" stroke-miterlimit="10"/>
<path d="M113.34 102.24V108.89H111.05V102.24" stroke="white" stroke-width="0.71" stroke-miterlimit="10"/>
<path d="M134.04 118.07L131.67 121.61H136.41L134.04 118.07Z" stroke="#4285F4" stroke-width="0.61" stroke-miterlimit="10"/>
<path d="M129.29 126.88H138.8L136.41 123.32H131.67L129.29 126.88Z" stroke="#4285F4" stroke-width="0.61" stroke-miterlimit="10"/>
<path d="M126.92 132.12H141.17L138.8 128.59H129.29L126.92 132.12Z" stroke="#4285F4" stroke-width="0.61" stroke-miterlimit="10"/>
</svg>
