<svg width="288" height="157" viewBox="0 0 288 157" fill="none" xmlns="http://www.w3.org/2000/svg">
<path d="M109.74 64.7401L107.92 64.6001L107.24 65.5101L107.18 66.2101L106.18 65.5401C106.18 65.5401 105.83 65.5401 106.09 66.0501C105.97 66.0501 105.26 65.4201 105.24 65.9801C105.76 66.5701 107.94 68.7601 107.94 68.7601C108.761 69.0419 109.562 69.3759 110.34 69.7601C111.206 70.5646 111.942 71.4991 112.52 72.5301L113 70.0001L111.86 68.3801L111.54 67.1301C111.455 66.762 111.283 66.4194 111.04 66.1301L109.92 64.8201V65.4901C109.92 65.4901 110.57 66.6201 110.2 66.9501C110.007 67.0856 109.776 67.1583 109.54 67.1583C109.304 67.1583 109.074 67.0856 108.88 66.9501C108.79 66.8501 108.03 66.0601 108.38 65.4201C109.66 65.3001 109.74 64.7401 109.74 64.7401Z" fill="#F8CEAD"/>
<path d="M210.32 45C220.32 50.08 225.9 55.37 225.32 60.24C224.77 64.6 219.32 68.06 210.32 70.48V45Z" fill="#4285F4"/>
<path d="M225.3 60.24C224.74 64.6 219.3 68.06 210.3 70.48C202.985 72.2848 195.521 73.4195 188 73.87V75.12L188.03 75.1293V112.7L189.98 112.54C210.81 110.79 224.4 106.07 225.29 99.0701V97.6301L225.3 97.63V60.24Z" fill="#ABDDF1"/>
<path d="M174.8 22.82L176.41 63.82C163.122 61.3275 149.709 59.5582 136.23 58.52C123.092 57.4519 109.907 57.0714 96.7299 57.38V57.08L94.9399 19C107.825 18.2872 120.739 18.2338 133.63 18.84C147.416 19.4061 161.161 20.7348 174.8 22.82Z" fill="#4285F4"/>
<path d="M166.37 33.3101C160.843 38.43 155.705 43.9553 151 49.8401" stroke="#AADFF5" stroke-width="0.86" stroke-miterlimit="10" stroke-linecap="round"/>
<path d="M151 33.3101C156.525 38.4326 161.662 43.9577 166.37 49.8401" stroke="#AADFF5" stroke-width="0.86" stroke-miterlimit="10" stroke-linecap="round"/>
<path d="M105.06 30.1901C117.727 30.1167 130.353 30.5667 142.94 31.5401" stroke="#AADFF5" stroke-width="0.81" stroke-miterlimit="10" stroke-linecap="round"/>
<path d="M105.06 36.82C117.727 36.76 130.353 37.21 142.94 38.17" stroke="#AADFF5" stroke-width="0.81" stroke-miterlimit="10" stroke-linecap="round"/>
<path d="M105.06 43.4599C117.727 43.3999 130.353 43.8499 142.94 44.8099" stroke="#AADFF5" stroke-width="0.81" stroke-miterlimit="10" stroke-linecap="round"/>
<path d="M89 85.4399C82.77 83.6599 77.08 81.8199 72 79.8199C55.86 73.6299 45.82 66.7699 45 60.4099L45.3666 100.268C45.344 100.391 45.3251 100.515 45.3099 100.64C44.1199 110.84 67.8199 122.52 103.12 130.84L103.21 130.45L102.92 89.0799C98.004 87.9309 93.3576 86.702 88.9509 85.4431C88.9672 85.442 88.9836 85.441 89 85.4399Z" fill="white"/>
<path d="M71.82 45.46L72.05 79.68L71.99 79.82C55.86 73.63 45.82 66.77 45 60.41V58.86C45.77 52.62 55.79 48 71.82 45.46Z" fill="#4285F4"/>
<path d="M194.26 100.7C196.56 95.2099 198.63 90.1999 200.91 84.4699C203.19 88.5799 204.98 92.2099 206.58 95.4699C209.58 89.3299 209.71 88.9799 215.98 75.9199" stroke="#4285F4" stroke-width="1.14" stroke-miterlimit="10" stroke-linecap="round"/>
<path d="M57.0698 109.47V103.72H50.3198V105.21C52.4673 106.786 54.7228 108.21 57.0698 109.47Z" fill="#4285F4"/>
<path d="M82 91.6899H75.25L75.42 117.23C77.5867 117.983 79.8433 118.723 82.19 119.45L82 91.6899Z" fill="#4285F4"/>
<path d="M69.5298 98.53H62.7798L62.8698 112.27C64.9898 113.27 67.2398 114.17 69.6398 115.1L69.5298 98.53Z" fill="#4285F4"/>
<path d="M217.61 77.5301L213.69 75.5101L216.66 74.5601L217.61 77.5301Z" fill="#4285F4"/>
<path d="M124.63 89.5599C124.63 89.5599 129.51 99.8199 153.63 95.6499C158.39 93.1499 161.04 92.1599 160.29 89.6499C159.54 87.1399 139.37 87.1799 139.37 87.1799L132.37 86.1799L124.63 89.5599Z" fill="#ABDDF1"/>
<path d="M130.75 111C132.61 108.36 154.6 93.43 156.15 91.52C156.94 90.52 137.85 89.82 137.85 89.82C137.85 89.82 160.13 76.82 167.65 83.82C177.56 93.16 156.54 105.63 133.56 112.52L130.75 111Z" fill="#ABDDF1"/>
<path d="M165.35 76.6399C163.93 67.3899 157.35 61.7999 151.35 58.1899C148.011 56.1073 144.167 54.975 140.232 54.9151C136.298 54.8552 132.421 55.8699 129.02 57.8499C126.1 59.5399 125.54 60.4599 123.45 63.1099C121.01 66.2099 119.7 71.9599 119.38 75.7899C118.63 74.7399 114.84 71.4499 112.48 68.2299C112.14 69.2899 111.54 69.6199 110.35 70.4799C111.64 75.3699 117.44 83.2599 120.58 84.2999C121.76 84.6899 125.92 81.4599 127.32 76.0299C127.32 79.0299 127.16 84.8199 127.08 87.3199C129.601 87.8614 132.158 88.2223 134.73 88.3999C135.73 88.5099 139.58 87.3999 141.86 87.2499C145.35 87.0599 147.64 87.7299 149.77 86.8899C151.96 84.7399 152.77 81.8899 154.4 79.2499L153.54 67.8699L163.38 75.5099L165.35 76.6399Z" fill="#FDFFA3"/>
<path d="M171.21 72.6335L146.704 70.6015C145.879 70.533 145.154 71.1468 145.086 71.9724L143.814 87.3098C143.745 88.1354 144.359 88.8601 145.185 88.9286L169.691 90.9606C170.516 91.029 171.241 90.4152 171.309 89.5897L172.581 74.2523C172.65 73.4267 172.036 72.7019 171.21 72.6335Z" fill="#335163"/>
<path d="M165.52 86.2C164.734 86.8734 164.216 87.8067 164.06 88.83C164.06 90.58 163.54 90.83 163.8 90.99C164.06 91.15 164.35 90.99 164.61 90.25C164.94 89.32 165.52 86.25 165.52 86.25" fill="#F8CEAD"/>
<path d="M164.58 88.05C164.514 88.3196 164.467 88.5937 164.44 88.87C164.29 90.32 164.44 91.66 164.89 91.6C165.53 91.52 165.18 90 165.18 90C165.39 90.26 164.97 92.1 165.67 92.11C166.37 92.12 166.23 90.23 166.32 90.25C166.41 90.27 166.01 91.89 166.76 91.85C167.35 91.85 167.33 90.53 167.47 90.23C167.47 90.23 167.39 91.15 167.91 91.17C168.43 91.19 168.56 90.1 168.46 88.67C168.329 87.4914 168.067 86.3309 167.68 85.21C167.5 84.38 166.68 84.34 166.19 84.89C165.474 85.8417 164.929 86.9111 164.58 88.05Z" fill="#F8CEAD"/>
<path d="M147.45 70.58C147.45 70.58 154.51 68.38 159.39 72.44C163.13 75.55 165.65 78.89 165.21 86.35L168.09 86.73C168.09 86.65 170.53 73.25 164.95 66.02C162.438 62.9487 159.335 60.4116 155.827 58.5585C152.318 56.7053 148.473 55.5736 144.52 55.23C128.73 54.24 147.45 70.58 147.45 70.58Z" fill="#FDFFA3"/>
<path d="M135.46 45.5099C135.437 45.1881 135.38 44.8696 135.29 44.5599C135.19 44.0439 135.221 43.5109 135.38 43.0099C135.433 42.8358 135.518 42.6731 135.63 42.5299C135.82 42.3199 136.09 42.1999 136.27 41.9799C136.416 41.7388 136.521 41.4753 136.58 41.1999C136.731 40.7635 136.996 40.3756 137.348 40.0766C137.7 39.7775 138.125 39.5784 138.58 39.4999C139.03 39.4199 139.51 39.4999 139.96 39.3699C140.461 39.1962 140.993 39.1287 141.521 39.1718C142.05 39.2148 142.564 39.3674 143.03 39.6199C143.512 40.0054 143.888 40.5081 144.12 41.0799C144.06 40.9499 145.51 41.2099 145.69 41.3399C146.19 41.6899 146.28 42.5599 146.34 43.1099C146.452 44.1068 146.452 45.113 146.34 46.1099C146.093 47.6136 145.44 49.0211 144.45 50.1799C144.022 50.9415 143.46 51.6192 142.79 52.1799C141.04 53.2599 138.62 52.1799 137.37 50.8399C136.634 50.0392 136.121 49.0602 135.88 47.9999C135.857 47.8877 135.816 47.7798 135.76 47.6799C135.686 47.5664 135.595 47.4651 135.49 47.3799C135.24 47.1399 134.94 46.7599 135.1 46.3799C135.18 46.1999 135.32 46.0499 135.39 45.8699C135.438 45.7561 135.462 45.6335 135.46 45.5099Z" fill="#335163"/>
<path d="M142.51 51.1901L142.35 49.5901L138.79 50.7201C138.757 52.4287 138.58 54.1315 138.26 55.8101C138.14 57.1101 143.61 57.1501 143.72 55.8101L142.63 51.5801L142.51 51.1901Z" fill="#F3BC97"/>
<path d="M146.75 110.71C145 108 128.42 92.79 127 90.79C126.27 89.79 143.77 87.72 143.77 87.72C143.77 87.72 127.41 75.22 115.51 82C106.51 87.09 121.31 104 143.86 112.16L146.75 110.71Z" fill="#ABDDF1"/>
<path d="M136.61 46.5501C136.49 48.8901 137.56 53.6201 140.61 53.4801C142.84 53.3701 144.88 50.0601 144.3 46.7101C144.217 45.7004 143.787 44.7504 143.084 44.0214C142.38 43.2923 141.446 42.8291 140.44 42.7101C139.939 42.7007 139.442 42.7922 138.977 42.9792C138.512 43.1661 138.09 43.4448 137.736 43.7985C137.381 44.1522 137.101 44.5737 136.913 45.0379C136.725 45.502 136.632 45.9993 136.64 46.5001" fill="#F8CEAD"/>
<path d="M145.352 48.7999C145.639 48.0758 145.488 47.3373 145.015 47.1504C144.543 46.9635 143.928 47.399 143.641 48.1232C143.355 48.8473 143.506 49.5858 143.978 49.7727C144.451 49.9596 145.066 49.524 145.352 48.7999Z" fill="#F8CEAD"/>
<path d="M137.019 49.7858C137.494 49.6047 137.654 48.868 137.376 48.1405C137.098 47.4129 136.489 46.97 136.014 47.1512C135.539 47.3324 135.379 48.069 135.657 48.7966C135.935 49.5241 136.545 49.967 137.019 49.7858Z" fill="#F8CEAD"/>
<path d="M137.58 42.0601C138.754 41.1171 140.196 40.5708 141.7 40.5001C142.558 40.4756 143.4 40.7333 144.098 41.2337C144.795 41.7341 145.309 42.4495 145.56 43.2701C145.666 44.1421 145.615 45.026 145.41 45.8801C145.41 46.1201 144.96 46.4601 144.81 46.6401C144.544 46.943 144.319 47.2792 144.14 47.6401C144.245 47.2132 144.245 46.7671 144.14 46.3401C143.987 45.8399 143.731 45.3768 143.39 44.9801C143.334 44.8989 143.259 44.8334 143.17 44.7901C143.068 44.7699 142.963 44.7699 142.86 44.7901C142.22 44.7901 141.75 43.9301 141.12 44.0601C140.83 44.1695 140.589 44.3788 140.44 44.6501C140.094 45.1546 139.68 45.6088 139.21 46.0001C138.709 46.3343 138.188 46.6382 137.65 46.9101C137.25 47.1601 136.65 47.3801 136.21 47.0201C135.63 46.5101 135.91 45.3101 135.98 44.6501C135.957 44.0476 136.106 43.4509 136.41 42.9301C136.77 42.6021 137.162 42.3107 137.58 42.0601Z" fill="#335163"/>
<path d="M144.68 113.36L146.41 120.19C146.427 120.254 146.465 120.311 146.517 120.351C146.57 120.391 146.634 120.413 146.7 120.413C146.766 120.413 146.831 120.391 146.883 120.351C146.936 120.311 146.973 120.254 146.99 120.19L148.93 112.46C148.947 112.395 148.941 112.326 148.914 112.264C148.887 112.202 148.84 112.152 148.78 112.12L147.06 111.21C147.011 111.174 146.951 111.155 146.89 111.155C146.829 111.155 146.77 111.174 146.72 111.21L144.77 113.03C144.722 113.068 144.688 113.121 144.671 113.18C144.655 113.24 144.658 113.303 144.68 113.36Z" fill="#335163"/>
<path d="M133.76 112.45L130.67 118.77C130.641 118.83 130.592 118.879 130.532 118.909C130.472 118.938 130.404 118.947 130.338 118.933C130.272 118.919 130.213 118.884 130.17 118.833C130.127 118.781 130.102 118.717 130.1 118.65L129.78 110.65C129.775 110.583 129.793 110.517 129.832 110.463C129.87 110.408 129.926 110.368 129.99 110.35L131.86 109.81C131.92 109.792 131.983 109.793 132.043 109.812C132.102 109.832 132.153 109.87 132.19 109.92L133.73 112.1C133.766 112.15 133.788 112.209 133.794 112.271C133.799 112.332 133.787 112.394 133.76 112.45Z" fill="#335163"/>
<path d="M123.48 63.1099C121.04 66.2099 119.73 71.9599 119.41 75.7899C117.366 73.0477 115.054 70.5153 112.51 68.2299C111.898 69.0669 111.182 69.8229 110.38 70.4799C111.83 77.0099 117.51 83.7599 120.61 84.2999C121.83 84.5199 125.95 81.4599 127.35 76.0299C130.46 63.2999 123.48 63.1099 123.48 63.1099Z" fill="#FDFFA3"/>
</svg>
