<svg xmlns="http://www.w3.org/2000/svg" width="1194" height="162" viewBox="0 0 1194 162" version="1.1">
	<path d="M 0 75.345 C 0 147.068, 0.088 150.770, 1.829 152.345 C 2.835 153.255, 4.243 154, 4.958 154 C 6.554 154, 14.038 160.629, 13.288 161.379 C 12.991 161.675, 31.630 161.945, 54.708 161.978 C 91.595 162.030, 96.667 161.854, 96.667 160.519 C 96.667 158.685, 95.364 158.510, 94.662 160.250 C 94.361 160.997, 94.126 160.795, 94.079 159.750 C 93.981 157.587, 93.312 157.545, 91.283 159.574 C 90.418 160.440, 89.437 160.733, 89.105 160.225 C 88.265 158.943, 85.007 159.094, 84.970 160.417 C 84.953 161.012, 84.481 160.713, 83.920 159.750 C 83.359 158.787, 82.248 158, 81.450 158 C 80.653 158, 80 157.662, 79.999 157.250 C 79.999 156.838, 83.339 156.579, 87.423 156.676 C 91.507 156.773, 95.800 156.604, 96.964 156.299 C 98.890 155.796, 98.941 155.593, 97.538 154.042 C 96.690 153.105, 96.320 152.013, 96.717 151.616 C 97.114 151.219, 96.665 151.191, 95.720 151.554 C 94.774 151.917, 93.986 152.728, 93.970 153.357 C 93.953 153.986, 93.481 153.713, 92.920 152.750 C 92.359 151.787, 90.685 150.948, 89.200 150.885 C 83.656 150.649, 94.421 149.117, 103 148.921 C 107.675 148.815, 110.487 148.533, 109.250 148.294 C 108.013 148.056, 107 147.296, 107 146.605 C 107 145.914, 105.875 144.292, 104.500 143 C 103.125 141.708, 102 141.154, 102 141.769 C 102 142.384, 102.897 143.515, 103.994 144.283 C 105.090 145.051, 105.705 145.961, 105.361 146.306 C 104.346 147.320, 100.750 142.071, 100.750 139.575 C 100.750 138.112, 99.711 136.670, 97.875 135.585 C 95.705 134.303, 94.996 134.207, 94.985 135.193 C 94.973 136.217, 94.798 136.231, 94.179 135.255 C 93.744 134.570, 92.176 133.909, 90.694 133.787 C 89.212 133.664, 88 133.212, 88 132.782 C 88 132.352, 87.127 132, 86.059 132 C 83.808 132, 82.498 130.428, 83.984 129.510 C 84.543 129.165, 85 129.459, 85 130.163 C 85 130.868, 85.701 130.445, 86.557 129.223 C 88.056 127.082, 90.762 125.958, 89.500 128 C 89.160 128.550, 89.310 129, 89.834 129 C 90.358 129, 91.045 128.325, 91.362 127.500 C 91.678 126.675, 92.401 126, 92.969 126 C 93.536 126, 94 126.675, 94 127.500 C 94 129.224, 95.151 129.449, 96.593 128.007 C 98.006 126.594, 115.180 125.904, 116.738 127.198 C 117.565 127.884, 118 127.896, 118 127.234 C 118 125.778, 132.843 126.877, 136.404 128.597 C 138.001 129.369, 140.026 130.020, 140.904 130.045 C 141.782 130.070, 143.826 130.656, 145.447 131.348 C 148.370 132.595, 148.379 132.621, 146.447 134.569 C 142.953 138.093, 141.223 141.528, 141.531 144.332 C 141.792 146.711, 141.404 147.171, 138.667 147.732 C 135.549 148.370, 135.539 148.391, 138 149.090 C 139.375 149.481, 142.537 149.845, 145.027 149.900 L 149.553 150 149.499 154.078 C 149.457 157.198, 148.864 158.602, 146.972 160.056 C 144.537 161.927, 145.658 161.955, 221.500 161.910 C 278.758 161.876, 297.859 161.580, 296 160.755 C 287.919 157.170, 285.007 156, 284.163 156 C 283.643 156, 282.912 154.786, 282.540 153.302 C 282.045 151.330, 281.638 150.967, 281.028 151.954 C 280.421 152.936, 279.682 152.240, 278.319 149.402 C 275.566 143.670, 275.919 140.919, 279.715 138.526 C 281.484 137.412, 282.727 135.914, 282.477 135.198 C 282.227 134.482, 282.417 134.140, 282.898 134.437 C 283.380 134.735, 284.346 134.288, 285.046 133.445 C 285.906 132.408, 287.321 132.087, 289.409 132.453 C 291.823 132.876, 292.062 132.792, 290.500 132.068 C 288.839 131.298, 289.124 131.129, 292.185 131.070 C 294.212 131.032, 297.062 130.547, 298.520 129.992 C 302.082 128.638, 321.417 128.115, 329.095 129.164 C 341.510 130.862, 354 139.151, 354 145.691 C 354 151.079, 346.742 158.045, 338.487 160.582 C 333.829 162.013, 502.595 162.373, 523.891 160.977 C 533.455 160.350, 541.555 160.211, 541.891 160.668 C 542.226 161.126, 553.764 161.655, 567.530 161.844 C 592.336 162.185, 592.562 162.169, 592.718 160.094 C 592.805 158.939, 592.279 158, 591.545 158 C 589.787 158, 588.778 155.265, 590.306 154.644 C 590.963 154.376, 588.575 154.088, 585 154.002 C 581.425 153.917, 577.825 153.719, 577 153.563 C 576.175 153.407, 567.419 152.698, 557.543 151.989 C 540.179 150.742, 539.747 150.659, 544.447 149.465 C 547.120 148.787, 553.574 148.208, 558.789 148.180 C 564.005 148.151, 568.695 147.705, 569.211 147.189 C 571.869 144.531, 538.964 144.023, 520.699 146.439 C 507.057 148.243, 504.669 148.345, 505.447 147.085 C 505.758 146.582, 505.447 145.943, 504.756 145.664 C 504.065 145.386, 504.545 145.122, 505.821 145.079 C 508.295 144.995, 511.319 142.652, 510.286 141.619 C 509.945 141.279, 508.222 141, 506.456 141 C 503.547 141, 500.023 138.643, 501.189 137.477 C 501.450 137.216, 505.227 136.717, 509.582 136.367 C 513.937 136.018, 518.175 135.362, 519 134.909 C 519.872 134.431, 518.930 134.333, 516.750 134.674 C 514.145 135.082, 513 134.889, 513 134.042 C 513 133.180, 511.239 132.922, 506.998 133.161 C 503.697 133.348, 500.997 133.179, 500.998 132.788 C 500.999 132.396, 498.075 132.348, 494.500 132.682 C 489.615 133.138, 488 132.976, 488 132.028 C 488 131.259, 488.781 130.971, 490 131.290 C 492.015 131.817, 492.638 130.410, 491.235 128.500 C 489.342 125.923, 486.399 127.083, 486.872 130.220 C 486.931 130.616, 485.972 131.477, 484.740 132.134 C 482.645 133.250, 482.597 133.209, 484 131.503 C 485.410 129.789, 485.368 129.761, 483.315 131.039 C 482.113 131.788, 481.349 132.755, 481.617 133.189 C 481.885 133.622, 481.332 133.681, 480.388 133.319 C 479.224 132.872, 478.904 133.036, 479.395 133.830 C 479.858 134.579, 479.376 135, 478.059 135 C 476.927 135, 476 135.381, 476 135.847 C 476 136.313, 475.083 137.775, 473.962 139.097 C 469.068 144.866, 466.731 147, 465.309 147 C 464.268 147, 464.688 146.123, 466.644 144.215 C 468.215 142.684, 471.672 138.849, 474.327 135.693 C 484.170 123.993, 493.829 121.730, 534.500 121.597 C 573.991 121.468, 596.824 121.982, 599.673 123.066 C 602.408 124.106, 601.936 126, 598.941 126 C 597.873 126, 597 126.675, 597 127.500 C 597 128.325, 597.450 129, 598 129 C 598.550 129, 599 130.174, 599 131.608 C 599 133.861, 599.327 134.135, 601.395 133.616 C 604.269 132.894, 610.522 135.311, 611.347 137.463 C 611.672 138.308, 612.883 139, 614.038 139 C 615.645 139, 616.064 139.529, 615.819 141.250 C 615.569 143.003, 614.903 143.460, 612.809 143.320 C 611.011 143.200, 610.015 143.686, 609.803 144.786 C 609.555 146.071, 608.390 146.408, 604.493 146.321 C 601.747 146.259, 600.738 146.417, 602.250 146.671 C 603.763 146.925, 605.470 148.010, 606.044 149.082 C 606.906 150.694, 606.700 151.175, 604.855 151.858 C 602.915 152.576, 603.171 152.772, 606.811 153.354 C 610.485 153.941, 611 154.343, 611 156.627 C 611 159.194, 610.924 159.221, 605.596 158.555 C 602.153 158.125, 599.954 158.265, 599.537 158.940 C 599.117 159.620, 600.337 160, 602.941 160 C 605.173 160, 607 160.450, 607 161 C 607 161.615, 612.003 162, 620.008 162 C 632.767 162, 632.993 161.962, 631.768 160 C 631.081 158.900, 630.151 158, 629.700 158 C 629.250 158, 629.160 158.450, 629.500 159 C 629.840 159.550, 629.668 160, 629.118 160 C 628.568 160, 627.835 159.543, 627.490 158.984 C 627.144 158.425, 626.469 158.210, 625.989 158.507 C 625.509 158.803, 625.264 157.798, 625.444 156.273 C 625.624 154.748, 625.823 152.911, 625.886 152.191 C 625.952 151.438, 626.531 151.187, 627.250 151.601 C 627.938 151.997, 628.199 151.985, 627.832 151.575 C 626.613 150.216, 629.060 145.293, 631.510 144.178 C 636.195 142.043, 643.411 141.734, 649.881 143.391 C 659.508 145.857, 669 153.288, 669 158.357 L 669 160.445 667.536 158.355 C 666.731 157.205, 664.758 156.002, 663.153 155.681 C 661.547 155.359, 659.056 154.801, 657.617 154.440 C 656.177 154.079, 655 154.201, 655 154.711 C 655 156.472, 660.782 162.162, 661.458 161.067 C 662.296 159.713, 666.679 159.672, 667.507 161.011 C 668.235 162.190, 700 162.194, 700 161.016 C 700 160.601, 698.987 160.314, 697.750 160.380 C 696.068 160.470, 695.411 159.868, 695.149 158 C 694.956 156.625, 694.281 155.162, 693.649 154.750 C 692.811 154.203, 692.867 153.763, 693.857 153.125 C 694.719 152.569, 694.840 152.019, 694.187 151.616 C 693.623 151.267, 692.545 151.548, 691.792 152.241 C 688.667 155.115, 686.115 155.980, 683.791 154.955 L 681.500 153.944 683.750 154.378 C 685.834 154.781, 686.688 154.021, 685.493 152.826 C 685.214 152.547, 682.946 152.629, 680.453 153.007 C 676.251 153.645, 675.771 153.487, 673.891 150.848 C 672.776 149.281, 671.423 148, 670.884 148 C 669.565 148, 665.071 142.817, 665.032 141.250 C 665.014 140.563, 664.523 140, 663.941 140 C 663.359 140, 663.149 139.568, 663.475 139.041 C 663.801 138.513, 663.635 137.276, 663.107 136.291 C 662.578 135.306, 661.905 133.720, 661.611 132.767 C 661.314 131.805, 660.463 131.269, 659.698 131.562 C 658.940 131.853, 657.872 131.508, 657.324 130.796 C 655.447 128.357, 652.003 118.503, 651.365 113.750 C 650.748 109.151, 650.621 109, 647.364 109 C 645.514 109, 644 108.580, 644 108.067 C 644 107.554, 645.322 103.842, 646.938 99.817 L 649.875 92.500 669.688 92 C 680.584 91.725, 690.019 91.856, 690.653 92.292 C 691.313 92.745, 692.005 92.532, 692.272 91.792 C 692.652 90.739, 693.140 90.738, 694.908 91.783 C 696.732 92.861, 697.334 92.809, 698.688 91.455 C 699.723 90.419, 701.048 90.088, 702.399 90.527 C 703.555 90.902, 705.962 91.436, 707.750 91.714 C 710.280 92.107, 711 91.862, 711 90.609 C 711 89.441, 711.946 89, 714.451 89 C 718.933 89, 728.149 90.951, 729.750 92.239 C 730.609 92.931, 731 92.883, 731 92.087 C 731 91.222, 731.529 91.213, 733.093 92.050 C 734.244 92.666, 736.269 92.898, 737.593 92.566 C 738.917 92.234, 740 92.335, 740 92.790 C 740 93.246, 742.691 93.535, 745.980 93.433 C 750.006 93.308, 752.331 93.694, 753.094 94.613 C 753.717 95.364, 754.578 95.761, 755.009 95.495 C 755.439 95.229, 756.048 95.684, 756.364 96.506 C 757.036 98.258, 759.665 98.506, 760.211 96.868 C 760.680 95.460, 765.109 97.762, 769.803 101.855 C 772.786 104.455, 773.084 105.207, 772.875 109.617 C 772.655 114.259, 771.469 117.787, 769.687 119.098 C 769.241 119.426, 768.835 121.098, 768.786 122.813 C 768.735 124.626, 768.278 125.672, 767.694 125.311 C 767.124 124.959, 767.001 125.193, 767.409 125.853 C 767.806 126.495, 767.462 127.269, 766.641 127.584 C 765.823 127.898, 764.905 128.805, 764.600 129.600 C 764.143 130.791, 764.425 130.843, 766.196 129.895 C 767.379 129.262, 769.368 127.723, 770.617 126.474 C 771.865 125.226, 773.249 124.046, 773.693 123.852 C 774.137 123.659, 776.726 120.800, 779.447 117.500 C 785.548 110.100, 787.986 107.653, 788.623 108.290 C 788.894 108.560, 787.077 111.283, 784.586 114.342 C 779.342 120.779, 777.086 127.741, 781.537 123.750 C 785.092 120.561, 786 119.989, 786 120.936 C 786 121.495, 784.345 123.425, 782.322 125.226 C 780.299 127.027, 777.924 129.175, 777.045 130 C 773.179 133.625, 759.442 142.294, 753.711 144.726 C 750.996 145.878, 750.287 146.582, 751.211 147.209 C 752.205 147.883, 752.157 148.029, 751 147.846 C 750.175 147.715, 748.495 147.949, 747.267 148.366 C 745.189 149.071, 745.139 149.282, 746.540 151.421 C 747.850 153.420, 747.858 153.873, 746.601 154.916 C 745.416 155.899, 745.245 155.778, 745.648 154.237 C 745.918 153.205, 745.420 151.763, 744.540 151.033 C 743.187 149.910, 742.600 150.018, 740.721 151.738 C 739.499 152.856, 737.487 154.077, 736.250 154.452 C 735.012 154.828, 734 155.629, 734 156.234 C 734 156.839, 733.711 157.044, 733.357 156.691 C 733.004 156.337, 733.284 155.362, 733.980 154.524 C 735.543 152.641, 734.133 152.583, 731.697 154.431 C 730.348 155.454, 730.222 155.929, 731.197 156.320 C 732.018 156.649, 731.833 156.871, 730.697 156.921 C 729.705 156.964, 727.238 158.125, 725.215 159.500 L 721.536 162 726.310 162 C 729.693 162, 731.706 161.420, 733.219 160.011 C 735.618 157.775, 736.971 158.125, 735.020 160.476 C 733.896 161.830, 735.426 162, 748.720 162 L 763.685 162 765.570 158.500 C 766.607 156.575, 767.818 155, 768.263 155 C 768.707 155, 768.605 155.870, 768.035 156.934 C 765.579 161.524, 766.374 162, 776.500 162 C 786.183 162, 786.454 161.885, 786.083 157.934 C 785.619 152.984, 796.100 150.038, 814.250 150.016 C 821.263 150.007, 827 149.592, 827 149.094 C 827 148.595, 826.029 148.441, 824.842 148.752 C 822.964 149.243, 822.768 149.003, 823.328 146.908 C 823.683 145.584, 823.979 144.136, 823.986 143.691 C 823.994 143.246, 824.520 143.203, 825.155 143.595 C 825.891 144.051, 826.037 143.868, 825.557 143.091 C 824.483 141.354, 827.860 138, 830.684 138 C 837.042 138, 855.713 151.677, 859.591 159.176 L 861.051 162 905.942 162 C 940.919 162, 950.945 161.724, 951.338 160.750 C 951.741 159.750, 951.858 159.750, 951.921 160.750 C 951.980 161.679, 955.192 162, 964.417 162 C 973.439 162, 976.959 161.658, 977.292 160.750 C 977.658 159.750, 978.015 159.750, 979.075 160.750 C 979.804 161.438, 981.772 161.964, 983.450 161.921 C 985.127 161.878, 985.938 161.615, 985.250 161.338 C 984.563 161.060, 984 159.971, 984 158.917 C 984 156.705, 982.948 156.461, 981.129 158.250 C 980.221 159.142, 979.949 159.162, 980.179 158.321 C 980.355 157.672, 979.600 156.458, 978.500 155.623 C 976.682 154.244, 977.593 154.132, 988.500 154.393 C 1003 154.742, 1005.280 155.432, 1003.130 158.824 C 1002.452 159.893, 1001.974 159.831, 1000.645 158.502 C 999.181 157.038, 999 157.030, 999 158.429 C 999 159.293, 998.325 160, 997.500 160 C 996.675 160, 996 160.450, 996 161 C 996 161.640, 1005 162, 1021 162 C 1037 162, 1046 161.640, 1046 161 C 1046 160.450, 1046.900 160, 1048 160 C 1049.100 160, 1050 160.450, 1050 161 C 1050 161.617, 1055.167 162, 1063.500 162 C 1071.019 162, 1076.889 161.601, 1076.750 161.100 C 1076.613 160.605, 1076.838 160.155, 1077.250 160.100 C 1079.362 159.818, 1080.058 160.097, 1079.500 161 C 1079.106 161.638, 1082.069 161.994, 1087.691 161.985 C 1093.100 161.975, 1095.968 161.632, 1095.122 161.096 C 1094.364 160.616, 1094.031 159.760, 1094.381 159.192 C 1095.318 157.676, 1092.084 154.864, 1089.624 155.056 C 1086.154 155.326, 1085.410 155.027, 1087 154 C 1088 153.354, 1088.083 153.026, 1087.250 153.015 C 1084.710 152.984, 1086.097 150.995, 1088.750 150.864 C 1091.108 150.747, 1091.179 150.666, 1089.250 150.294 C 1088.013 150.056, 1087 149.387, 1087 148.808 C 1087 148.153, 1086.438 148.222, 1085.511 148.991 C 1084.692 149.671, 1084.265 150.620, 1084.563 151.102 C 1084.860 151.583, 1084.368 151.695, 1083.468 151.349 C 1082.568 151.004, 1082.240 150.447, 1082.739 150.111 C 1083.238 149.775, 1083.925 148.742, 1084.266 147.816 C 1084.717 146.591, 1084.371 146.172, 1082.994 146.275 C 1081.567 146.383, 1081.365 146.735, 1082.173 147.709 C 1082.992 148.695, 1082.743 149, 1081.122 149 C 1079.955 149, 1079 148.541, 1079 147.981 C 1079 147.380, 1077.921 147.233, 1076.370 147.622 C 1074.373 148.123, 1073.856 147.947, 1074.223 146.891 C 1074.490 146.126, 1075.414 145.624, 1076.278 145.777 C 1077.142 145.929, 1078.182 145.515, 1078.589 144.857 C 1079.093 144.040, 1078.800 143.863, 1077.664 144.299 C 1076.577 144.716, 1076 144.428, 1076 143.469 C 1076 142.661, 1076.422 142, 1076.938 142 C 1077.454 142, 1077.810 141.131, 1077.730 140.069 C 1077.650 139.007, 1077.221 138.363, 1076.776 138.638 C 1076.331 138.913, 1076.266 139.670, 1076.630 140.319 C 1077.130 141.209, 1076.988 141.218, 1076.053 140.356 C 1074.580 138.998, 1075.032 135.500, 1076.680 135.500 C 1077.314 135.500, 1078.208 135.096, 1078.667 134.602 C 1079.150 134.082, 1078.574 133.932, 1077.298 134.246 C 1076.087 134.544, 1074.932 134.295, 1074.731 133.693 C 1074.481 132.942, 1074.134 132.975, 1073.624 133.799 C 1073.216 134.460, 1073.296 135, 1073.802 135 C 1074.917 135, 1074.122 139.807, 1072.881 140.574 C 1072.396 140.873, 1072 140.690, 1072 140.166 C 1072 139.642, 1071.302 138.946, 1070.448 138.618 C 1069.558 138.277, 1069.157 138.445, 1069.507 139.011 C 1070.689 140.923, 1068.967 142.053, 1066.712 140.846 C 1064.595 139.713, 1064.590 139.668, 1066.522 138.913 C 1068.213 138.253, 1068.246 138.130, 1066.750 138.070 C 1065.787 138.032, 1065 137.592, 1065 137.094 C 1065 136.595, 1063.987 136.457, 1062.750 136.787 C 1060.511 137.384, 1060.512 137.390, 1063 138.022 C 1065.242 138.592, 1065.118 138.706, 1061.799 139.122 C 1058.819 139.496, 1058.311 139.330, 1059.191 138.269 C 1059.793 137.545, 1059.996 136.663, 1059.643 136.309 C 1059.289 135.956, 1059 136.192, 1059 136.833 C 1059 137.475, 1058.325 138, 1057.500 138 C 1056.675 138, 1056 137.523, 1056 136.941 C 1056 136.344, 1055.454 136.223, 1054.750 136.662 C 1052.434 138.107, 1050.216 137.966, 1048.854 136.286 C 1048.098 135.353, 1048.014 134.924, 1048.665 135.314 C 1049.305 135.698, 1050.057 135.447, 1050.336 134.756 C 1050.725 133.790, 1050.860 133.805, 1050.921 134.821 C 1050.982 135.846, 1051.337 135.806, 1052.500 134.643 C 1053.325 133.818, 1054 132.672, 1054 132.097 C 1054 130.798, 1059.270 127.998, 1061.700 128.006 C 1062.690 128.010, 1064.789 128.685, 1066.364 129.506 C 1069.675 131.233, 1070.337 131.355, 1069.558 130.093 C 1069.249 129.595, 1069.898 129.422, 1070.999 129.710 C 1072.099 129.998, 1073 129.781, 1073 129.228 C 1073 128.675, 1072.438 128.243, 1071.750 128.269 C 1071.063 128.294, 1069.245 128.244, 1067.711 128.158 C 1065.012 128.005, 1064.980 127.939, 1066.711 126.104 C 1067.695 125.061, 1070.140 123.992, 1072.145 123.728 C 1074.149 123.464, 1076.399 122.864, 1077.145 122.393 C 1077.890 121.923, 1080.525 121.423, 1083 121.281 C 1088.067 120.991, 1094.246 120.344, 1095 120.024 C 1096.078 119.566, 1103.685 119.879, 1107 120.518 C 1108.925 120.889, 1111.475 121.262, 1112.667 121.346 C 1113.859 121.431, 1115.171 121.838, 1115.584 122.250 C 1115.996 122.663, 1117.122 123, 1118.085 123 C 1120.660 123, 1136 131.202, 1136 132.579 C 1136 133.226, 1136.661 134.303, 1137.468 134.973 C 1138.275 135.644, 1138.879 136.486, 1138.809 136.846 C 1138.740 137.206, 1138.941 138.175, 1139.256 139 C 1140.442 142.102, 1140.866 148.221, 1140.046 150.380 C 1139.288 152.374, 1139.733 152.876, 1144.102 154.950 C 1146.802 156.232, 1150.043 158.237, 1151.304 159.406 C 1153.363 161.314, 1154.903 161.554, 1166.339 161.749 C 1177.939 161.947, 1179.054 161.811, 1178.790 160.233 C 1178.438 158.130, 1176.547 156, 1175.032 156 C 1174.302 156, 1174.364 155.519, 1175.211 154.599 C 1175.920 153.828, 1176.651 153.606, 1176.835 154.105 C 1177.020 154.604, 1177.604 154.745, 1178.134 154.417 C 1178.733 154.047, 1178.676 153.314, 1177.984 152.481 C 1177.130 151.452, 1177.356 150.880, 1178.956 150.023 C 1180.103 149.410, 1181.451 149.161, 1181.952 149.470 C 1182.452 149.779, 1183.145 149.574, 1183.492 149.014 C 1183.905 148.345, 1184.742 148.327, 1185.929 148.962 C 1186.924 149.494, 1188.018 149.648, 1188.362 149.304 C 1188.706 148.960, 1189.918 149.521, 1191.055 150.550 C 1192.824 152.150, 1193.255 152.210, 1194.046 150.960 C 1194.589 150.101, 1194.976 118.714, 1194.985 74.750 L 1195 0 597.500 0 L 0 0 0 75.345 M 0.475 76 C 0.475 117.525, 0.599 134.513, 0.750 113.750 C 0.901 92.988, 0.901 59.013, 0.750 38.250 C 0.599 17.488, 0.475 34.475, 0.475 76 M 82.533 22.030 C 80.901 22.532, 74.151 23.103, 67.533 23.298 C 58.903 23.552, 54.617 24.115, 52.377 25.286 C 50.659 26.185, 48.972 26.638, 48.627 26.293 C 48.282 25.949, 48 26.155, 48 26.752 C 48 27.348, 47.693 28.638, 47.317 29.617 C 46.737 31.128, 47.116 31.054, 49.825 29.125 C 54.848 25.548, 58.767 25.221, 77.750 26.797 C 82.838 27.219, 87 27.186, 87 26.723 C 87 26.261, 87.468 26.171, 88.039 26.524 C 88.611 26.878, 90.980 27.167, 93.305 27.167 C 96.792 27.167, 97.730 27.589, 98.671 29.583 C 99.592 31.534, 99.541 32, 98.406 32 C 97.633 32, 97 32.450, 97 33 C 97 33.550, 96.523 34, 95.941 34 C 95.359 34, 95.203 33.480, 95.595 32.845 C 96.060 32.094, 95.867 31.964, 95.043 32.474 C 94.318 32.922, 93.439 32.711, 92.988 31.981 C 92.516 31.218, 92.200 32.197, 92.200 34.419 C 92.200 36.462, 92.451 37.882, 92.758 37.575 C 93.065 37.268, 93.985 37.572, 94.802 38.251 C 96.072 39.305, 96.182 39.121, 95.556 36.992 L 94.823 34.500 97.161 37.093 C 100.600 40.905, 104.037 42.558, 105.066 40.893 C 105.707 39.856, 106.345 39.993, 108.094 41.540 L 110.310 43.500 108.422 40.500 C 107 38.240, 106.923 37.806, 108.109 38.741 C 108.975 39.424, 110.018 39.649, 110.425 39.241 C 110.833 38.834, 111.017 39.119, 110.833 39.875 C 110.650 40.631, 111.125 41.477, 111.889 41.755 C 112.740 42.064, 113.008 41.822, 112.580 41.130 C 112.196 40.508, 112.148 40, 112.473 40 C 113.690 40, 120 42.921, 120 43.484 C 120 43.807, 119.100 43.589, 118 43 C 116.900 42.411, 116 42.192, 116 42.514 C 116 43.489, 124.346 46.955, 126.750 46.978 C 127.987 46.990, 129 47.375, 129 47.833 C 129 48.292, 129.563 48.720, 130.250 48.785 C 132.629 49.011, 138.495 50.796, 137.191 50.898 C 134.401 51.116, 137.299 53, 140.424 53 C 142.243 53, 144.837 53.870, 146.189 54.934 C 148.621 56.847, 151.878 56.731, 157.158 54.543 C 159.970 53.378, 161.427 48.109, 161.132 40.175 C 160.741 29.691, 160.088 28.444, 154.319 27.163 C 148.266 25.819, 141.533 24.789, 137 24.514 C 131.067 24.154, 116.834 22.853, 110 22.045 C 100.809 20.958, 86.040 20.950, 82.533 22.030 M 102.913 26.500 C 102.831 27.600, 102.832 28.885, 102.917 29.355 C 103.001 29.826, 102.492 30.911, 101.785 31.768 C 100.811 32.948, 100.789 33.423, 101.694 33.727 C 102.350 33.948, 102.641 34.773, 102.339 35.559 C 102.037 36.345, 101.430 36.765, 100.988 36.493 C 100.547 36.220, 100.415 36.873, 100.695 37.943 C 101.096 39.476, 101.478 39.635, 102.497 38.694 C 103.208 38.037, 103.595 37.177, 103.356 36.782 C 103.117 36.388, 103.836 34.172, 104.954 31.859 C 106.072 29.546, 106.764 27.431, 106.493 27.160 C 106.222 26.889, 106 27.053, 106 27.524 C 106 27.996, 105.339 27.509, 104.532 26.441 C 103.083 24.525, 103.062 24.526, 102.913 26.500 M 411.766 31.750 C 409.704 33.925, 395 59.766, 395 61.215 C 395 61.411, 395.875 61.571, 396.945 61.571 C 398.333 61.571, 398.607 61.232, 397.903 60.383 C 397.206 59.544, 397.837 58.540, 400.055 56.961 L 403.193 54.727 401.548 58.113 L 399.903 61.500 401.853 59 C 402.925 57.625, 403.735 56.243, 403.651 55.929 C 403.568 55.614, 404.292 54.566, 405.259 53.598 C 406.227 52.630, 406.763 51.425, 406.450 50.919 C 406.138 50.414, 406.337 50, 406.892 50 C 408.057 50, 414.720 38.433, 416.625 33.103 L 417.912 29.500 417.956 32.523 C 417.999 35.505, 408.257 53.385, 397.809 69.500 C 393.073 76.806, 389.053 84.223, 390.765 82.500 C 391.311 81.950, 395.797 75.200, 400.734 67.500 C 417.944 40.659, 422.142 31.970, 418.895 29.914 C 416.484 28.388, 414.461 28.909, 411.766 31.750 M 106.158 32 C 106.158 33.375, 106.385 33.938, 106.662 33.250 C 106.940 32.563, 106.940 31.438, 106.662 30.750 C 106.385 30.063, 106.158 30.625, 106.158 32 M 87 32.706 C 87 34.202, 90.066 37.268, 90.813 36.520 C 91.130 36.203, 90.401 34.957, 89.194 33.750 C 87.987 32.543, 87 32.073, 87 32.706 M 90.422 49.376 C 91.013 51.878, 90.867 52.156, 89.301 51.507 C 88.310 51.096, 83.499 50.621, 78.610 50.451 C 70.186 50.158, 69.871 50.220, 72.608 51.640 C 76.986 53.912, 79.135 56.205, 78.482 57.906 C 78.159 58.749, 78.211 59.122, 78.598 58.735 C 79.845 57.488, 81.957 61.347, 80.795 62.747 C 80.067 63.624, 80.092 64, 80.878 64 C 81.495 64, 82 64.482, 82 65.071 C 82 68.102, 92.822 72.773, 96.539 71.347 C 97.343 71.038, 98 71.337, 98 72.010 C 98 72.717, 98.797 73.025, 99.889 72.739 C 100.928 72.467, 102.310 72.574, 102.960 72.975 C 104.275 73.788, 94.717 75.166, 88.500 75.060 C 86.300 75.023, 83.825 75.437, 83 75.981 C 81.996 76.642, 81.913 76.974, 82.750 76.985 C 83.438 76.993, 84 77.477, 84 78.059 C 84 78.641, 83.581 78.859, 83.069 78.543 C 82.557 78.226, 81.856 78.425, 81.510 78.984 C 81.165 79.543, 81.610 80, 82.500 80 C 83.422 80, 83.826 80.473, 83.438 81.100 C 82.948 81.893, 83.314 81.903, 84.748 81.135 C 85.842 80.549, 86.960 80.294, 87.233 80.567 C 87.979 81.312, 92.064 82.245, 96 82.568 C 97.925 82.726, 99.500 82.936, 99.500 83.034 C 99.500 83.132, 100.990 83.295, 102.812 83.397 C 106.253 83.590, 107.958 85.210, 107.985 88.309 C 108.010 91.328, 109.727 89.266, 110.466 85.330 C 110.923 82.896, 111.431 82.079, 111.958 82.932 C 112.551 83.892, 112.860 83.919, 113.155 83.036 C 113.410 82.270, 114.220 82.585, 115.431 83.923 C 117.147 85.820, 117.162 86, 115.596 86 C 114.653 86, 114.165 86.457, 114.510 87.016 C 114.856 87.575, 115.670 87.728, 116.319 87.356 C 116.998 86.967, 117.146 87.066, 116.667 87.590 C 116.208 88.090, 115.421 88.556, 114.917 88.625 C 114.413 88.694, 113.670 88.806, 113.266 88.875 C 112.862 88.944, 114.052 89.816, 115.911 90.813 C 118.338 92.114, 119.376 93.423, 119.592 95.456 L 119.894 98.288 109.373 97.608 C 97.714 96.854, 74.401 97.899, 77.530 99.035 C 78.614 99.428, 79.838 99.554, 80.250 99.316 C 80.662 99.077, 81 99.584, 81 100.441 C 81 101.298, 81.450 102, 82 102 C 82.550 102, 83 101.534, 83 100.965 C 83 100.289, 83.607 100.255, 84.750 100.866 C 85.713 101.381, 86.725 101.803, 87 101.803 C 90.376 101.802, 97.422 103.565, 98.550 104.692 C 99.867 106.010, 100.415 105.696, 100.130 103.786 C 100.072 103.393, 100.731 103.343, 101.596 103.675 C 102.460 104.007, 102.792 104.553, 102.334 104.889 C 101.070 105.815, 100.769 109.739, 101.908 110.443 C 103.305 111.307, 102.104 114, 100.322 114 C 99.051 114, 99.056 114.199, 100.357 115.500 C 101.182 116.325, 102.339 117, 102.929 117 C 103.518 117, 104.003 117.338, 104.006 117.750 C 104.010 118.162, 105.454 119.321, 107.216 120.324 C 110.110 121.971, 110.530 121.995, 111.570 120.574 C 112.964 118.667, 114 118.544, 114 120.286 C 114 121.704, 113.922 121.690, 126 122.366 C 130.675 122.627, 134.500 122.914, 134.500 123.003 C 134.500 123.091, 139.226 123.357, 145.001 123.592 C 150.777 123.827, 157.527 124.374, 160.001 124.807 C 162.535 125.250, 165.811 125.180, 167.500 124.646 C 169.150 124.124, 171.063 123.554, 171.750 123.380 C 172.592 123.166, 173 120.906, 173 116.459 C 173 111.156, 172.489 108.985, 170.405 105.428 C 168.978 102.993, 167.281 101, 166.636 101 C 165.807 101, 165.573 98.791, 165.840 93.503 C 166.441 81.604, 165.192 79.410, 157.046 78.055 L 153.592 77.481 153.362 71.139 C 153.178 66.062, 152.576 63.996, 150.346 60.778 C 146.792 55.650, 144.404 54.153, 139.818 54.179 C 137.793 54.191, 134.643 53.732, 132.818 53.159 C 126.765 51.260, 109.385 49, 100.831 49 C 95.462 49, 91.917 48.546, 91.071 47.750 C 89.977 46.721, 89.862 47.009, 90.422 49.376 M 924.500 47.926 C 923.400 48.366, 918.225 49.035, 913 49.415 C 907.775 49.794, 901.925 50.586, 900 51.175 C 896.143 52.356, 892 55.666, 892 57.567 C 892 59.426, 894.992 60.183, 895.643 58.489 C 895.954 57.676, 896.565 57.231, 897 57.500 C 897.435 57.769, 898.048 57.316, 898.364 56.494 C 898.941 54.991, 901.102 54.352, 900.882 55.750 C 900.544 57.886, 901.158 58.877, 902.500 58.362 C 903.325 58.045, 904 57.398, 904 56.924 C 904 56.451, 903.360 56.308, 902.577 56.609 C 901.622 56.975, 901.242 56.554, 901.422 55.327 C 901.569 54.322, 902.487 53.344, 903.463 53.154 C 904.439 52.963, 904.973 53.235, 904.650 53.758 C 904.327 54.280, 905.202 55.227, 906.595 55.861 C 907.988 56.496, 908.872 56.602, 908.560 56.098 C 907.813 54.889, 908.951 52, 910.174 52 C 910.703 52, 910.849 52.900, 910.500 54 C 909.633 56.733, 911.432 56.536, 912.793 53.750 C 913.750 51.790, 913.838 51.998, 913.478 55.359 C 913.250 57.482, 912.487 59.957, 911.782 60.859 C 910.613 62.355, 910.676 62.368, 912.500 61 C 913.600 60.175, 914.775 59.124, 915.112 58.665 C 915.448 58.205, 916.123 57.868, 916.612 57.915 C 917.100 57.962, 917.500 57.438, 917.500 56.750 C 917.500 55.050, 922.077 49.950, 923.420 50.155 C 924.014 50.246, 925.625 49.859, 927 49.295 C 929.893 48.107, 940.223 49.168, 940.735 50.704 C 940.920 51.261, 941.717 52.568, 942.504 53.608 C 943.773 55.285, 943.940 55.307, 943.968 53.809 C 943.986 52.879, 944.385 51.880, 944.856 51.589 C 945.326 51.298, 945.499 52.171, 945.239 53.528 C 944.980 54.887, 945.505 57.121, 946.407 58.498 C 948.414 61.562, 952 61.884, 952 59 C 952 57.900, 951.550 57, 951 57 C 950.450 57, 950 56.502, 950 55.893 C 950 55.252, 950.736 55.066, 951.750 55.452 C 953.153 55.986, 953.252 55.869, 952.250 54.859 C 950.480 53.076, 950.692 51.500, 952.500 53 C 953.729 54.020, 954 53.951, 954 52.622 C 954 50.748, 955.124 50.524, 956.687 52.087 C 957.435 52.835, 957.975 52.849, 958.419 52.131 C 959.016 51.166, 960.025 51.277, 964 52.746 C 967.535 54.052, 968.926 53.970, 968.357 52.488 C 968.043 51.670, 968.284 51, 968.893 51 C 969.988 51, 970.398 52.856, 970.052 56.250 C 969.954 57.212, 970.320 58, 970.866 58 C 971.411 58, 972.652 57.212, 973.623 56.250 C 975.154 54.732, 975.306 54.717, 974.769 56.135 C 974.024 58.105, 976.540 62, 978.557 62 C 979.351 62, 980 62.414, 980 62.921 C 980 63.427, 981.350 64.138, 983 64.500 C 987.568 65.503, 986.581 66.537, 981.250 66.333 C 978.638 66.234, 977.625 66.365, 979 66.625 C 980.375 66.885, 982.067 67.289, 982.760 67.522 C 983.454 67.755, 984.303 67.919, 984.649 67.887 C 985.446 67.813, 986.969 70.185, 986.969 71.500 C 986.969 72.050, 986.551 71.838, 986.039 71.029 C 984.372 68.393, 984.165 70.408, 985.708 74.250 C 987.371 78.391, 988.586 78.882, 990.654 76.250 C 991.410 75.287, 991.969 74.950, 991.896 75.500 C 991.823 76.050, 991.816 77.357, 991.882 78.405 C 991.997 80.260, 992.054 80.261, 994.043 78.461 C 995.834 76.841, 996.006 76.821, 995.436 78.306 C 995.066 79.269, 995.264 80, 995.893 80 C 996.502 80, 997 79.550, 997 79 C 997 78.450, 997.498 78, 998.107 78 C 998.716 78, 998.966 78.645, 998.664 79.434 C 998.312 80.350, 998.724 80.825, 999.807 80.751 C 1000.738 80.687, 1002.737 80.950, 1004.250 81.336 C 1005.910 81.760, 1007 81.634, 1007 81.019 C 1007 80.459, 1007.436 80, 1007.969 80 C 1008.501 80, 1008.678 80.675, 1008.362 81.500 C 1007.590 83.511, 1010.395 83.462, 1012.429 81.429 C 1014.323 79.535, 1014.499 73.064, 1012.723 70.635 C 1011.486 68.944, 1009.523 68.236, 1005.628 68.077 C 1004.084 68.013, 1003.972 67.739, 1004.992 66.509 C 1005.814 65.519, 1006.007 63.532, 1005.566 60.591 C 1004.920 56.281, 1003.450 54.116, 1000.800 53.570 C 1000.085 53.423, 998.825 53.047, 998 52.735 C 996.294 52.090, 986.270 51.113, 974.500 50.444 C 970.100 50.194, 962.900 49.781, 958.500 49.527 C 954.100 49.272, 947.575 48.608, 944 48.052 C 936.339 46.859, 927.315 46.801, 924.500 47.926 M 923.564 53.707 C 923.022 55.132, 923.136 55.247, 924.124 54.267 C 924.808 53.588, 925.115 52.781, 924.807 52.474 C 924.499 52.166, 923.940 52.721, 923.564 53.707 M 948 54.059 C 948 55.191, 948.430 55.852, 948.956 55.527 C 949.482 55.202, 949.659 54.275, 949.349 53.468 C 948.556 51.401, 948 51.644, 948 54.059 M 941.015 56.250 C 941.007 57.212, 941.450 58, 942 58 C 942.550 58, 943.225 58, 943.500 58 C 943.775 58, 944 57.775, 944 57.500 C 944 57.225, 943.713 57.038, 943.362 57.085 C 943.011 57.132, 942.343 56.570, 941.877 55.835 C 941.228 54.812, 941.027 54.908, 941.015 56.250 M 947.346 63.775 C 948.374 64.802, 949.290 64.937, 950.531 64.242 C 952 63.421, 951.773 63.194, 949.089 62.800 C 946.314 62.392, 946.089 62.518, 947.346 63.775 M 953.761 64.212 C 954.433 65.022, 954.649 66.018, 954.241 66.425 C 953.834 66.833, 954.175 67.017, 955 66.833 C 955.825 66.650, 956.388 67.063, 956.250 67.750 C 956.112 68.438, 956.675 69, 957.500 69 C 958.433 69, 959 69.944, 959 71.500 C 959 72.875, 959.477 74, 960.059 74 C 960.641 74, 960.877 74.390, 960.583 74.866 C 960.288 75.343, 960.892 76.497, 961.924 77.431 C 963.923 79.241, 965.749 78.021, 964.373 75.795 C 963.125 73.776, 962.944 69, 964.115 69 C 964.720 69, 964.955 69.675, 964.638 70.500 C 964.322 71.325, 964.485 72, 965 72 C 965.515 72, 965.696 72.629, 965.400 73.399 C 965.105 74.168, 965.325 75.083, 965.888 75.431 C 966.452 75.779, 966.659 76.725, 966.349 77.532 C 966.040 78.339, 966.236 79, 966.786 79 C 968.254 79, 969.245 75.770, 968.011 75.007 C 967.295 74.564, 967.445 73.180, 968.477 70.708 C 969.780 67.592, 969.791 67.143, 968.557 67.616 C 967.763 67.921, 966.915 68.919, 966.673 69.835 C 966.350 71.055, 966.201 70.931, 966.116 69.372 C 965.969 66.677, 962.894 63.848, 962.236 65.803 C 961.890 66.831, 961.556 66.798, 960.649 65.647 C 960.017 64.844, 957.934 63.861, 956.020 63.463 C 953.025 62.841, 952.710 62.945, 953.761 64.212 M 988 64.300 C 988 65.388, 989.215 66.101, 991.750 66.502 C 1003.110 68.296, 1002.263 68.360, 1000.899 65.810 C 1000.145 64.403, 999.503 63.991, 999.249 64.753 C 998.644 66.569, 991.967 66.280, 989.829 64.345 C 988.167 62.841, 988 62.837, 988 64.300 M 971.813 66.683 C 972.534 66.972, 973.397 66.936, 973.729 66.604 C 974.061 66.272, 973.471 66.036, 972.417 66.079 C 971.252 66.127, 971.015 66.364, 971.813 66.683 M 989.731 71.920 C 989.296 73.583, 989.426 73.974, 990.168 73.232 C 990.750 72.650, 991.028 71.585, 990.788 70.863 C 990.538 70.114, 990.085 70.568, 989.731 71.920 M 926.500 79 C 925.718 80.266, 927.042 80.266, 929 79 C 930.293 78.165, 930.266 78.029, 928.809 78.015 C 927.879 78.007, 926.840 78.450, 926.500 79 M 932.305 79.289 C 932.550 79.955, 933.266 80.384, 933.896 80.243 C 934.636 80.077, 934.855 80.963, 934.515 82.743 L 933.988 85.500 935.077 82.750 C 936.273 79.732, 938 79.062, 938 81.617 C 938 82.756, 938.607 83.074, 940.057 82.695 C 941.692 82.268, 941.885 82.433, 941 83.500 C 940.119 84.561, 940.293 84.736, 941.830 84.334 C 942.899 84.055, 944.084 84.326, 944.461 84.938 C 944.839 85.549, 944.778 85.985, 944.324 85.906 C 941.764 85.462, 941.907 86.322, 944.839 89 C 946.645 90.650, 948.658 91.986, 949.312 91.968 C 949.965 91.951, 949.600 91.257, 948.500 90.427 C 947.400 89.596, 946.445 87.952, 946.378 86.773 C 946.260 84.713, 946.310 84.703, 947.628 86.505 C 948.382 87.538, 949 88.016, 949 87.569 C 949 87.121, 949.675 87.315, 950.500 88 C 951.735 89.025, 952 88.939, 952 87.515 C 952 86.499, 952.541 85.994, 953.312 86.289 C 954.261 86.654, 954.505 85.990, 954.196 83.884 C 953.962 82.284, 953.484 80.800, 953.135 80.585 C 952.786 80.370, 949.329 79.905, 945.454 79.550 C 941.578 79.196, 936.934 78.719, 935.133 78.492 C 932.860 78.204, 931.995 78.448, 932.305 79.289 M 923.056 81.559 C 924.415 83.006, 925.623 83.631, 925.835 82.996 C 926.040 82.379, 925.374 81.241, 924.354 80.468 C 921.289 78.146, 920.484 78.822, 923.056 81.559 M 958 80.885 C 958 81.372, 959.125 82.507, 960.500 83.408 C 962.415 84.663, 963 84.736, 963 83.723 C 963 82.995, 962.460 81.860, 961.800 81.200 C 960.400 79.800, 958 79.601, 958 80.885 M 970.962 80.191 C 970.941 80.361, 970.698 82.075, 970.422 84 C 970.017 86.818, 970.335 87.757, 972.057 88.819 C 973.233 89.545, 974.387 89.947, 974.621 89.712 C 975.369 88.965, 973.824 85.990, 972.964 86.522 C 971.966 87.139, 970.552 85.114, 971.394 84.273 C 971.720 83.946, 972.778 84.394, 973.744 85.268 C 974.710 86.142, 975.867 86.866, 976.316 86.877 C 976.764 86.888, 978.066 88.085, 979.208 89.538 C 980.697 91.430, 981.954 92.051, 983.643 91.728 C 984.939 91.480, 986 91.665, 986 92.139 C 986 92.612, 986.900 93, 988 93 C 989.100 93, 990.006 92.438, 990.013 91.750 C 990.020 91.063, 991.240 92.975, 992.723 96 C 994.206 99.025, 996.003 101.861, 996.716 102.303 C 997.519 102.801, 997.777 104.041, 997.395 105.564 C 996.898 107.541, 997.092 107.902, 998.383 107.407 C 999.266 107.068, 999.697 106.318, 999.340 105.741 C 998.958 105.123, 999.172 104.988, 999.862 105.415 C 1000.506 105.813, 1000.726 106.634, 1000.352 107.239 C 999.919 107.940, 1000.257 108.115, 1001.285 107.721 C 1002.380 107.301, 1002.731 107.537, 1002.379 108.456 C 1001.808 109.943, 1007.185 111.621, 1008.976 110.515 C 1009.539 110.167, 1010 110.359, 1010 110.941 C 1010 113.038, 1011.782 111.941, 1012.948 109.126 C 1014.255 105.970, 1013.501 99.628, 1011.645 98.174 C 1011.015 97.680, 1009.337 96.999, 1007.916 96.660 C 1005.450 96.073, 1005.353 95.793, 1005.788 90.544 C 1006.215 85.394, 1006.083 84.982, 1003.721 84.084 C 1002.333 83.556, 998.790 83.234, 995.849 83.368 C 992.907 83.501, 989.632 83.189, 988.572 82.675 C 987.511 82.160, 983.596 81.613, 979.871 81.459 C 976.145 81.304, 972.626 80.887, 972.049 80.530 C 971.472 80.174, 970.983 80.021, 970.962 80.191 M 965.581 82.649 C 965.236 83.549, 965.189 84.522, 965.476 84.810 C 965.764 85.098, 966 84.782, 966 84.108 C 966 83.434, 966.450 83.160, 967 83.500 C 967.550 83.840, 968 83.668, 968 83.118 C 968 81.317, 966.224 80.973, 965.581 82.649 M 337.750 82.706 C 338.988 82.944, 341.012 82.944, 342.250 82.706 C 343.488 82.467, 342.475 82.272, 340 82.272 C 337.525 82.272, 336.512 82.467, 337.750 82.706 M 375.750 82.662 C 376.438 82.940, 377 84.479, 377 86.083 C 377 87.716, 377.550 89.028, 378.250 89.063 C 378.938 89.098, 378.375 89.580, 377 90.133 L 374.500 91.140 377 92.535 C 379.209 93.767, 377.278 93.933, 360.417 93.965 C 344.105 93.995, 341.333 93.782, 341.333 92.500 C 341.333 91.675, 342.046 90.929, 342.917 90.843 C 343.788 90.756, 342.250 90.377, 339.500 90 L 334.500 89.314 339.500 89 L 344.500 88.686 339.500 88 C 334.996 87.382, 334.866 87.299, 338.191 87.157 C 340.221 87.071, 342.160 86.550, 342.500 86 C 343.455 84.455, 334.636 84.788, 331.500 86.416 L 328.772 87.831 331.136 88.279 C 333.461 88.720, 333.463 88.730, 331.250 88.864 C 330.012 88.939, 329 89.623, 329 90.383 C 329 91.144, 330.012 92.070, 331.250 92.442 C 333.436 93.097, 333.443 93.141, 331.500 93.988 C 330.068 94.612, 329.926 94.913, 331 95.048 C 331.825 95.152, 331.150 95.580, 329.500 96 L 326.500 96.763 329.750 96.882 C 332.640 96.987, 333 97.320, 333 99.893 C 333 101.484, 333.615 103.022, 334.367 103.311 C 335.275 103.659, 335.798 105.796, 335.922 109.668 C 336.197 118.253, 336.660 120.803, 338.230 122.373 C 339.445 123.587, 339.661 123.346, 339.787 120.642 C 339.867 118.914, 340.216 113.650, 340.561 108.945 C 341.169 100.661, 341.115 100.356, 338.845 99.308 L 336.500 98.227 339.500 97.375 C 342.467 96.533, 342.451 96.516, 338 95.843 C 335.525 95.469, 342.275 95.377, 353 95.639 C 363.725 95.901, 373.902 96.353, 375.616 96.644 C 378.713 97.169, 378.733 97.211, 378.714 103.336 C 378.699 108.345, 379.281 117.128, 380.200 125.750 C 380.396 127.590, 386.656 127.339, 387.376 125.462 C 387.712 124.587, 387.327 123.679, 386.483 123.355 C 385.396 122.938, 384.969 121.013, 384.884 116.143 C 384.820 112.489, 384.561 110.293, 384.308 111.262 C 383.441 114.589, 382.472 112.172, 382.836 107.590 C 383.037 105.069, 383.573 103.236, 384.028 103.518 C 384.484 103.799, 385.144 103.123, 385.495 102.015 C 385.945 100.598, 387.006 100, 389.067 100 C 391.377 100, 392 99.555, 392 97.906 C 392 96.690, 391.203 95.604, 390.099 95.316 C 387.865 94.731, 386.692 90.332, 388.577 89.609 C 389.461 89.270, 389.625 88.245, 389.108 86.309 C 388.566 84.284, 387.540 83.324, 385.429 82.868 C 381.924 82.112, 373.968 81.943, 375.750 82.662 M 955 83 C 955 83.550, 955.675 84, 956.500 84 C 957.325 84, 958 83.550, 958 83 C 958 82.450, 957.325 82, 956.500 82 C 955.675 82, 955 82.450, 955 83 M 329.558 83.907 C 329.249 84.405, 329.898 84.578, 330.999 84.290 C 333.334 83.679, 333.629 83, 331.559 83 C 330.766 83, 329.866 83.408, 329.558 83.907 M 390 86 C 390 86.550, 390.450 87, 391 87 C 391.550 87, 392 86.550, 392 86 C 392 85.450, 391.550 85, 391 85 C 390.450 85, 390 85.450, 390 86 M 279.314 89.750 C 278.972 90.713, 278.466 91.907, 278.191 92.405 C 277.916 92.902, 278.208 92.989, 278.840 92.599 C 280.639 91.487, 282.279 88, 281.004 88 C 280.417 88, 279.657 88.787, 279.314 89.750 M 940 90.108 C 940 91.561, 941.789 91.992, 942.300 90.661 C 942.580 89.931, 942.177 89.333, 941.405 89.333 C 940.632 89.333, 940 89.682, 940 90.108 M 114.001 92.498 C 113.328 93.310, 113.045 94.675, 113.373 95.530 C 113.844 96.757, 114.397 96.858, 115.985 96.008 C 117.093 95.415, 118 94.694, 118 94.406 C 118 94.118, 117.474 94.207, 116.830 94.605 C 116.048 95.088, 115.868 94.787, 116.286 93.696 C 117.130 91.497, 115.529 90.658, 114.001 92.498 M 993.977 92.035 C 992.698 92.844, 992.711 92.971, 994.076 92.985 C 994.942 92.993, 996.708 94.125, 998 95.500 C 1000.501 98.162, 1003.098 99.028, 1001 96.500 C 999.960 95.247, 1000.104 95, 1001.878 95 C 1003.045 95, 1004 94.612, 1004 94.139 C 1004 93.665, 1002.859 93.495, 1001.465 93.762 C 999.961 94.049, 998.223 93.607, 997.192 92.674 C 996.006 91.601, 994.985 91.398, 993.977 92.035 M 275.027 96.750 C 272.814 101.452, 271.041 112.392, 272.357 113.219 C 273.153 113.720, 273.692 111.879, 274.132 107.147 C 274.480 103.412, 275.504 98.926, 276.408 97.178 C 277.312 95.430, 277.662 94, 277.186 94 C 276.710 94, 275.739 95.237, 275.027 96.750 M 958 95.430 C 958 96.029, 958.965 97.122, 960.145 97.858 C 962.008 99.022, 962.212 98.995, 961.696 97.650 C 961.282 96.572, 961.551 96.274, 962.581 96.669 C 963.395 96.982, 963.832 97.970, 963.553 98.868 C 963.274 99.766, 963.478 101.175, 964.008 102 C 964.796 103.230, 964.972 103.125, 964.985 101.417 C 964.994 100.111, 965.648 99.333, 966.738 99.333 C 969.226 99.333, 970.547 101.079, 970.472 104.266 C 970.436 105.787, 970.878 106.865, 971.453 106.662 C 972.029 106.459, 972.357 105.507, 972.183 104.546 C 971.995 103.507, 972.300 103.067, 972.937 103.461 C 973.526 103.825, 973.744 105.171, 973.423 106.452 C 973.100 107.739, 973.347 109.096, 973.976 109.485 C 975.465 110.405, 980.240 109.197, 979.547 108.075 C 979.252 107.599, 979.655 106.963, 980.441 106.661 C 981.227 106.359, 982.063 106.650, 982.298 107.306 C 983.053 109.413, 984.208 107.232, 983.507 105.023 C 982.989 103.390, 982.523 103.151, 981.505 103.996 C 980.588 104.757, 979.978 104.773, 979.530 104.049 C 979.174 103.472, 979.021 102.966, 979.191 102.923 C 981.716 102.298, 983.581 102.241, 984.425 102.763 C 984.997 103.116, 986.326 103.469, 987.379 103.546 C 989.163 103.678, 989.175 103.601, 987.566 102.424 C 985.939 101.235, 985.950 101.050, 987.746 99.254 C 991.077 95.923, 991.099 94.433, 987.818 94.183 C 986.146 94.056, 985.112 94.372, 985.444 94.910 C 986.467 96.565, 984.227 97.084, 982.690 95.548 C 981.601 94.458, 980.433 94.302, 978.185 94.947 C 976.516 95.426, 974.836 95.521, 974.451 95.159 C 974.066 94.796, 974.035 95.625, 974.381 97 C 974.999 99.456, 974.990 99.460, 973.852 97.250 C 973.050 95.692, 971.742 94.972, 969.597 94.909 C 967.894 94.859, 964.587 94.711, 962.250 94.580 C 959.705 94.436, 958 94.778, 958 95.430 M 967 97 C 967 97.550, 967.675 98, 968.500 98 C 969.325 98, 970 97.550, 970 97 C 970 96.450, 969.325 96, 968.500 96 C 967.675 96, 967 96.450, 967 97 M 121.750 97.662 C 122.438 97.940, 123.563 97.940, 124.250 97.662 C 124.938 97.385, 124.375 97.158, 123 97.158 C 121.625 97.158, 121.063 97.385, 121.750 97.662 M 220 100.645 C 220 101.245, 221.519 104.702, 223.376 108.328 C 226.326 114.088, 226.699 115.649, 226.338 120.710 L 225.926 126.500 227.884 124.237 C 228.961 122.992, 230.025 121.425, 230.249 120.754 C 230.472 120.084, 231.882 119.637, 233.382 119.761 C 234.946 119.890, 235.853 119.571, 235.508 119.013 C 235.174 118.472, 236.744 117.745, 239.034 117.379 C 241.670 116.957, 242.698 116.432, 241.878 115.925 C 240.551 115.105, 235.554 115.721, 233.108 117.007 C 231.028 118.100, 228.179 115.181, 225.365 109.072 C 222.583 103.033, 220 98.976, 220 100.645 M 994 105 C 994 105.550, 994.450 106, 995 106 C 995.550 106, 996 105.550, 996 105 C 996 104.450, 995.550 104, 995 104 C 994.450 104, 994 104.450, 994 105 M 102.638 107.500 C 102.291 108.405, 102.633 109, 103.500 109 C 104.367 109, 104.709 108.405, 104.362 107.500 C 104.045 106.675, 103.657 106, 103.500 106 C 103.343 106, 102.955 106.675, 102.638 107.500 M 267.667 106.667 C 266.589 107.745, 266.902 110.822, 268.170 111.605 C 268.973 112.101, 269.125 111.767, 268.653 110.537 C 268.275 109.552, 268.478 108.129, 269.105 107.373 C 270.234 106.013, 268.950 105.383, 267.667 106.667 M 286.250 106.662 C 285.563 106.940, 285 108.015, 285 109.051 C 285 110.088, 283.762 111.607, 282.250 112.428 L 279.500 113.920 282.275 113.960 C 284.380 113.990, 285.294 113.356, 286.064 111.331 C 286.622 109.864, 287.848 108.078, 288.789 107.363 C 290.177 106.309, 290.217 106.072, 289 106.111 C 288.175 106.137, 286.938 106.385, 286.250 106.662 M 654.469 108.050 C 653.519 109.588, 654.820 110.580, 656.104 109.296 C 656.822 108.578, 656.839 108.019, 656.156 107.597 C 655.596 107.251, 654.837 107.455, 654.469 108.050 M 774 109.559 C 774 110.416, 774.450 110.840, 775 110.500 C 775.550 110.160, 776 109.459, 776 108.941 C 776 108.423, 775.550 108, 775 108 C 774.450 108, 774 108.702, 774 109.559 M 252.500 111.975 C 251.292 112.479, 252.877 112.595, 256.500 112.267 C 259.800 111.968, 262.688 111.561, 262.917 111.362 C 263.769 110.622, 254.425 111.172, 252.500 111.975 M 775.577 113.548 C 775.228 114.942, 774.536 115.831, 774.040 115.525 C 773.544 115.218, 772.813 115.494, 772.415 116.138 C 771.977 116.846, 772.123 117.042, 772.784 116.633 C 773.385 116.262, 774.366 116.755, 774.963 117.729 C 775.742 118.998, 775.983 119.075, 775.815 118 C 775.686 117.175, 776.126 115.515, 776.793 114.311 C 777.470 113.088, 777.610 111.877, 777.109 111.568 C 776.617 111.263, 775.927 112.154, 775.577 113.548 M 247.813 112.683 C 248.534 112.972, 249.397 112.936, 249.729 112.604 C 250.061 112.272, 249.471 112.036, 248.417 112.079 C 247.252 112.127, 247.015 112.364, 247.813 112.683 M 773.500 113 C 773.840 113.550, 774.316 114, 774.559 114 C 774.802 114, 775 113.550, 775 113 C 775 112.450, 774.523 112, 773.941 112 C 773.359 112, 773.160 112.450, 773.500 113 M 998.287 113.989 C 998.763 115.808, 998.633 115.856, 996.772 114.553 C 995.001 113.312, 994.434 113.325, 992.412 114.650 C 991.134 115.487, 989.649 115.901, 989.113 115.570 C 988.577 115.239, 987.826 115.473, 987.444 116.090 C 986.932 116.919, 986.567 116.917, 986.050 116.080 C 985.664 115.457, 983.808 114.846, 981.925 114.723 C 980.041 114.601, 978.187 114.063, 977.804 113.529 C 976.570 111.806, 976.134 113.422, 976.868 117.007 C 977.260 118.928, 978.014 120.532, 978.541 120.571 C 980.428 120.712, 985 123.339, 985 124.283 C 985 124.812, 985.635 124.718, 986.411 124.074 C 987.442 123.218, 988.008 123.204, 988.512 124.020 C 988.892 124.634, 989.750 124.926, 990.420 124.669 C 991.089 124.412, 993.506 124.544, 995.791 124.962 C 998.076 125.380, 999.726 125.365, 999.457 124.930 C 999.188 124.494, 999.397 123.873, 999.922 123.548 C 1000.447 123.223, 1001.299 123.712, 1001.815 124.633 C 1002.381 125.646, 1003.395 126.062, 1004.376 125.686 C 1005.602 125.215, 1006 123.716, 1006 119.567 C 1006 113.697, 1004.643 112, 999.949 112 C 998.263 112, 997.885 112.452, 998.287 113.989 M 207.027 115.651 C 208.387 116.559, 210.956 118.666, 212.735 120.333 C 214.514 122, 216.273 123.060, 216.643 122.690 C 217.013 122.320, 217.920 122.519, 218.658 123.131 C 220.979 125.058, 220.118 123.253, 217.183 120.040 C 215.634 118.344, 213.413 116.772, 212.248 116.548 C 211.083 116.323, 209.230 115.658, 208.131 115.070 C 205.028 113.410, 204.269 113.809, 207.027 115.651 M 216.666 115.750 C 217.751 116.713, 218.931 118.287, 219.288 119.250 C 219.645 120.213, 220.387 121, 220.937 121 C 221.487 121, 221.660 121.787, 221.321 122.750 C 220.890 123.976, 221.031 124.201, 221.793 123.500 C 223.143 122.259, 224.079 117.370, 223.338 115.438 C 223.034 114.647, 222.143 114, 221.358 114 C 220.220 114, 220.157 114.424, 221.046 116.086 C 221.660 117.233, 221.917 118.416, 221.618 118.715 C 221.319 119.014, 220.536 118.075, 219.877 116.629 C 219.167 115.071, 217.867 114, 216.686 114 C 214.704 114, 214.704 114.009, 216.666 115.750 M 283.105 115.085 C 281.787 115.612, 280.961 116.295, 281.269 116.603 C 281.577 116.910, 282.880 116.651, 284.164 116.026 C 286.391 114.943, 286.409 114.962, 284.559 116.445 C 283.491 117.300, 282.179 118, 281.642 118 C 281.106 118, 280.928 118.261, 281.248 118.581 C 281.567 118.901, 282.735 118.677, 283.842 118.085 C 286.026 116.916, 289.334 117.651, 288.435 119.105 C 288.131 119.597, 287.432 120, 286.882 120 C 286.332 120, 286.203 119.480, 286.595 118.845 C 287.048 118.114, 286.869 117.963, 286.106 118.435 C 285.185 119.004, 285.177 119.509, 286.074 120.589 C 286.794 121.457, 286.851 122, 286.220 122 C 285.343 122, 282.910 126.894, 282.601 129.282 C 282.462 130.362, 275.895 137, 274.967 137 C 274.553 137, 273.938 137.719, 273.601 138.598 C 273.263 139.478, 275.144 138.391, 277.780 136.184 C 283.582 131.327, 287.514 129.498, 295.820 127.796 L 302.140 126.500 298.509 122.270 C 296.512 119.943, 292.823 117.131, 290.312 116.020 C 287.801 114.909, 285.690 114.029, 285.623 114.063 C 285.555 114.098, 284.422 114.558, 283.105 115.085 M 199 116.544 C 199 116.767, 200.410 117.678, 202.133 118.569 C 204.503 119.795, 205.446 119.896, 206.008 118.988 C 206.539 118.127, 206.944 118.100, 207.434 118.893 C 207.810 119.502, 208.654 119.986, 209.309 119.968 C 209.964 119.951, 209.646 119.290, 208.603 118.500 C 207.559 117.710, 206.386 117.262, 205.995 117.503 C 205.604 117.745, 203.871 117.537, 202.142 117.041 C 200.414 116.545, 199 116.322, 199 116.544 M 656 117 C 656 117.550, 656.450 118, 657 118 C 657.550 118, 658 117.550, 658 117 C 658 116.450, 657.550 116, 657 116 C 656.450 116, 656 116.450, 656 117 M 228.667 117.667 C 228.300 118.033, 228 118.798, 228 119.367 C 228 119.993, 228.466 119.934, 229.183 119.217 C 229.834 118.566, 230.134 117.801, 229.850 117.517 C 229.566 117.233, 229.033 117.300, 228.667 117.667 M 979 118 C 979 118.550, 979.450 119, 980 119 C 980.550 119, 981 118.550, 981 118 C 981 117.450, 980.550 117, 980 117 C 979.450 117, 979 117.450, 979 118 M 292 119.347 C 293.375 120.072, 294.712 120.491, 294.971 120.278 C 295.674 119.701, 292.724 118.031, 291 118.030 C 290.173 118.030, 290.622 118.621, 292 119.347 M 364.564 119.707 C 364.022 121.132, 364.136 121.247, 365.124 120.267 C 365.808 119.588, 366.115 118.781, 365.807 118.474 C 365.499 118.166, 364.940 118.721, 364.564 119.707 M 658.787 118.821 C 657.549 119.312, 657.336 119.917, 658.021 121 C 658.651 121.996, 658.975 122.080, 658.985 121.250 C 658.993 120.563, 659.900 120, 661 120 C 662.100 120, 663 119.550, 663 119 C 663 117.876, 661.344 117.806, 658.787 118.821 M 777.467 121.765 C 776.898 122.169, 776.463 123.175, 776.500 124 C 776.537 124.825, 776.102 125.831, 775.533 126.235 C 774.857 126.715, 774.912 126.975, 775.691 126.985 C 777.095 127.003, 777.967 125.766, 778.499 123.004 C 778.931 120.763, 778.911 120.739, 777.467 121.765 M 661.415 124.138 C 660.983 124.836, 661.123 125.042, 661.760 124.648 C 662.348 124.285, 663.057 124.553, 663.336 125.244 C 663.698 126.143, 663.865 126.161, 663.921 125.309 C 664.035 123.588, 662.265 122.761, 661.415 124.138 M 923.250 123.662 C 921.509 124.365, 921.684 126, 923.500 126 C 924.325 126, 925 125.325, 925 124.500 C 925 123.675, 924.888 123.036, 924.750 123.079 C 924.612 123.122, 923.938 123.385, 923.250 123.662 M 929.423 129 C 929.791 134.151, 929.266 134.748, 925.934 132.965 C 924.587 132.244, 924 132.252, 924 132.990 C 924 133.573, 925.125 134.477, 926.500 135 C 927.875 135.523, 929 136.460, 929 137.082 C 929 137.705, 929.661 137.960, 930.468 137.651 C 931.275 137.341, 932.184 137.489, 932.488 137.980 C 932.791 138.471, 933.930 138.806, 935.020 138.724 C 936.973 138.576, 937.002 137.897, 935.256 133.250 C 934.976 132.505, 935.610 132, 936.826 132 C 938.438 132, 938.849 131.380, 938.782 129.045 C 938.715 126.696, 938.084 125.876, 935.700 125.045 C 929.778 122.981, 929.028 123.453, 929.423 129 M 210 126 C 210 126.550, 211.088 127, 212.418 127 C 213.748 127, 215.661 127.232, 216.668 127.515 C 217.676 127.798, 217.150 127.369, 215.500 126.560 C 211.947 124.819, 210 124.621, 210 126 M 248 126.046 C 246.905 126.787, 247.309 126.880, 249.500 126.390 C 253.177 125.567, 253.975 124.995, 251.417 125.015 C 250.363 125.024, 248.825 125.487, 248 126.046 M 428.259 125.659 C 426.413 126.405, 429.651 129.348, 431.526 128.629 C 432.337 128.317, 433.007 128.611, 433.015 129.281 C 433.036 130.899, 434.964 127.931, 434.985 126.250 C 435 125.020, 430.763 124.647, 428.259 125.659 M 510.513 125.756 C 508.320 125.972, 506.241 126.611, 505.892 127.175 C 505.543 127.740, 503.233 128.269, 500.759 128.351 C 497.616 128.455, 496.404 128.877, 496.737 129.750 C 497.275 131.160, 499 131.459, 499 130.142 C 499 129.670, 500.800 129.385, 503 129.509 C 505.200 129.634, 507 129.356, 507 128.892 C 507 128.429, 508.154 128.488, 509.565 129.025 C 513.195 130.405, 517.228 130.235, 521.135 128.539 C 524.774 126.959, 524.766 126.840, 521 126.549 C 519.625 126.443, 517.600 126.133, 516.500 125.860 C 515.400 125.587, 512.706 125.540, 510.513 125.756 M 947.461 125.937 C 948.544 127.689, 953.995 129.948, 954.063 128.673 C 954.098 128.028, 954.549 128.554, 955.065 129.842 C 955.582 131.131, 955.771 132.562, 955.486 133.023 C 955.201 133.484, 955.425 134.144, 955.984 134.490 C 956.543 134.835, 957 134.456, 957 133.648 C 957 132.811, 957.754 132.293, 958.750 132.447 C 960.334 132.691, 961.945 131.427, 961.985 129.910 C 962.002 129.236, 955.601 127.101, 952.276 126.672 C 951.052 126.514, 949.740 126.073, 949.359 125.692 C 948.326 124.659, 946.793 124.856, 947.461 125.937 M 219.500 127 C 219.840 127.550, 220.568 128, 221.118 128 C 221.668 128, 221.840 127.550, 221.500 127 C 221.160 126.450, 220.432 126, 219.882 126 C 219.332 126, 219.160 126.450, 219.500 127 M 544.750 126.662 C 545.438 126.940, 546.563 126.940, 547.250 126.662 C 547.938 126.385, 547.375 126.158, 546 126.158 C 544.625 126.158, 544.063 126.385, 544.750 126.662 M 1069.510 127.016 C 1069.856 127.575, 1070.557 127.774, 1071.069 127.457 C 1072.456 126.600, 1072.198 126, 1070.441 126 C 1069.584 126, 1069.165 126.457, 1069.510 127.016 M 253 127.385 C 253 127.597, 253.697 129.285, 254.549 131.135 C 255.913 134.097, 256.031 134.171, 255.530 131.750 C 255.148 129.899, 255.377 128.995, 256.231 128.985 C 257.102 128.974, 257.030 128.666, 256 128 C 254.457 127.003, 253 126.704, 253 127.385 M 540.813 127.683 C 541.534 127.972, 542.397 127.936, 542.729 127.604 C 543.061 127.272, 542.471 127.036, 541.417 127.079 C 540.252 127.127, 540.015 127.364, 540.813 127.683 M 539.206 129.750 C 539.927 130.617, 539.919 131, 539.181 131 C 538.597 131, 537.840 130.550, 537.500 130 C 537.160 129.450, 536.121 129.010, 535.191 129.023 C 534.261 129.035, 535.075 129.809, 537 130.742 C 538.925 131.675, 540.650 132.789, 540.833 133.219 C 541.017 133.649, 542.592 134.007, 544.333 134.015 C 546.075 134.024, 548.175 134.474, 549 135.015 C 550.333 135.891, 550.333 136.109, 549 136.985 C 547.716 137.828, 547.752 137.972, 549.250 137.985 C 550.212 137.993, 551 138.450, 551 139 C 551 139.550, 552.913 140.059, 555.250 140.132 L 559.500 140.263 556 140.931 C 551.752 141.741, 571.141 143.183, 577.500 142.529 C 579.700 142.303, 582.588 142.091, 583.917 142.059 C 587.820 141.964, 585.926 141.237, 580 140.556 C 571.186 139.543, 569.333 139.004, 569.333 137.457 C 569.333 136.573, 570.350 135.975, 571.917 135.937 C 574.450 135.874, 574.456 135.856, 572.259 134.972 C 571.027 134.477, 567.652 133.794, 564.759 133.455 C 557.691 132.627, 556.190 132.119, 557.825 131.108 C 558.534 130.670, 554.472 129.921, 548.631 129.412 C 540.294 128.685, 538.379 128.754, 539.206 129.750 M 964.743 129.109 C 963.320 129.918, 963.197 130.499, 964.093 132.174 C 964.892 133.668, 964.894 134.053, 964.100 133.562 C 963.487 133.183, 963 133.546, 963 134.382 C 963 135.207, 963.520 136.203, 964.155 136.595 C 964.870 137.038, 965.038 136.870, 964.595 136.155 C 964.203 135.520, 964.359 135, 964.941 135 C 965.523 135, 966 135.420, 966 135.933 C 966 136.446, 966.900 137.151, 968 137.500 C 969.100 137.849, 970 138.581, 970 139.126 C 970 139.672, 969.641 139.896, 969.202 139.625 C 968.763 139.354, 967.803 139.504, 967.067 139.958 C 966.033 140.598, 966.214 141.044, 967.865 141.928 C 969.039 142.556, 970.007 143.842, 970.015 144.785 C 970.028 146.258, 970.167 146.288, 971 145 C 971.791 143.777, 971.972 143.898, 971.985 145.656 C 971.997 147.323, 971.546 147.694, 970 147.290 C 968.900 147.002, 967.993 146.257, 967.985 145.633 C 967.976 144.956, 967.623 145.046, 967.110 145.857 C 966.510 146.803, 966.043 146.878, 965.566 146.107 C 965.190 145.498, 963.953 145, 962.819 145 C 961.083 145, 960.956 145.242, 962.020 146.524 C 962.716 147.362, 963.517 147.816, 963.800 147.533 C 964.084 147.249, 964.920 147.519, 965.658 148.131 C 966.663 148.965, 967 148.920, 967 147.948 C 967 147.168, 968.061 147.618, 969.661 149.076 C 971.125 150.409, 972.065 151.045, 971.750 150.489 C 971.435 149.933, 971.867 148.583, 972.710 147.489 C 974.155 145.615, 974.208 145.702, 973.623 149 C 973.252 151.096, 973.348 151.964, 973.863 151.165 C 974.974 149.440, 975.073 149.434, 977.833 150.911 C 979.800 151.964, 980.467 151.887, 982.083 150.425 C 983.137 149.471, 984 148.030, 984 147.223 C 984 146.044, 984.290 145.996, 985.472 146.977 C 986.639 147.945, 987.221 147.919, 988.276 146.849 C 989.605 145.503, 989.189 140.828, 987.750 140.941 C 986.403 141.047, 986.810 139.523, 988.396 138.522 C 989.540 137.801, 990.339 138.063, 991.445 139.522 C 992.269 140.610, 992.745 142.063, 992.503 142.750 C 992.244 143.485, 992.902 144, 994.099 144 C 995.746 144, 996.004 144.430, 995.452 146.250 C 995.077 147.488, 994.709 148.950, 994.635 149.500 C 994.489 150.585, 1006.839 151.174, 1008.500 150.162 C 1009.050 149.827, 1010.175 149.541, 1011 149.526 C 1012.601 149.498, 1012.911 144.768, 1011.643 139.714 C 1010.803 136.365, 1006.690 135.157, 998.250 135.779 L 992 136.240 992 133.242 C 992 130.583, 991.550 130.129, 988.028 129.235 C 985.069 128.484, 983.797 128.540, 983.037 129.456 C 982.476 130.131, 982.313 130.980, 982.675 131.342 C 983.037 131.704, 982.385 132, 981.226 132 C 980.066 132, 978.859 131.580, 978.542 131.067 C 978.225 130.554, 976.688 130.171, 975.127 130.215 C 973.566 130.260, 971.661 129.905, 970.894 129.427 C 968.783 128.111, 966.691 128.003, 964.743 129.109 M 424 130.606 C 424 131.298, 425.007 132.185, 426.238 132.576 C 429.308 133.550, 436.002 133.669, 436.001 132.750 C 436 131.941, 434.534 131.665, 431.750 131.948 C 430.788 132.046, 430 131.699, 430 131.176 C 430 130.654, 428.650 130.029, 427 129.787 C 425.022 129.496, 424 129.775, 424 130.606 M 493.500 130 C 493.840 130.550, 494.568 131, 495.118 131 C 495.668 131, 495.840 130.550, 495.500 130 C 495.160 129.450, 494.432 129, 493.882 129 C 493.332 129, 493.160 129.450, 493.500 130 M 667.543 129.931 C 666.860 131.036, 668.437 132.230, 669.361 131.306 C 670.311 130.355, 670.134 129, 669.059 129 C 668.541 129, 667.859 129.419, 667.543 129.931 M 916.570 130.677 C 916.199 131.646, 916.211 132.122, 916.598 131.735 C 916.985 131.348, 917.922 131.812, 918.681 132.766 C 919.943 134.354, 920.035 134.297, 919.779 132.078 C 919.438 129.118, 917.494 128.270, 916.570 130.677 M 1057.198 131.289 L 1055.048 133.578 1057.261 133.745 C 1058.811 133.861, 1059.072 133.662, 1058.131 133.081 C 1056.229 131.906, 1058.028 131.195, 1060.990 131.950 C 1062.677 132.381, 1063.080 132.832, 1062.240 133.352 C 1061.558 133.773, 1061.014 134.654, 1061.030 135.309 C 1061.047 135.964, 1061.519 135.713, 1062.080 134.750 C 1062.641 133.787, 1063.779 133, 1064.609 133 C 1065.439 133, 1065.881 133.384, 1065.590 133.854 C 1065.150 134.566, 1069.003 137, 1070.572 137 C 1070.835 137, 1071.477 135.875, 1072 134.500 C 1072.735 132.567, 1073.694 131.980, 1076.225 131.914 L 1079.500 131.828 1076.763 131.004 C 1073.489 130.018, 1069.760 130.802, 1070.675 132.284 C 1071.088 132.951, 1070.686 133.093, 1069.582 132.670 C 1068.622 132.301, 1067.397 132, 1066.859 132 C 1066.322 132, 1066.167 131.539, 1066.515 130.975 C 1067.322 129.670, 1064.749 130.161, 1063.765 131.500 C 1063.299 132.135, 1063.025 132.078, 1063.015 131.344 C 1063.006 130.667, 1062.067 130.392, 1060.750 130.680 C 1058.942 131.077, 1058.795 130.963, 1060 130.102 C 1060.825 129.513, 1061.016 129.024, 1060.424 129.015 C 1059.833 129.007, 1058.381 130.030, 1057.198 131.289 M 239.162 131.484 C 237.875 132.193, 237.250 133.036, 237.771 133.359 C 238.857 134.030, 243.980 131.881, 243.992 130.750 C 244.003 129.670, 241.866 129.995, 239.162 131.484 M 257.379 134 C 257.663 136.475, 257.661 137.713, 257.374 136.750 C 256.612 134.188, 255.115 134.611, 255.605 137.250 C 255.968 139.210, 255.859 139.163, 254.761 136.884 C 253.721 134.726, 253.106 134.413, 251.250 135.101 C 250.012 135.560, 249 136.394, 249 136.954 C 249 137.515, 247.425 138.631, 245.500 139.436 C 242.449 140.710, 242 141.345, 242 144.384 C 242 149.282, 243.619 153.008, 245.725 152.959 C 248.861 152.886, 256.456 148.573, 257.607 146.212 C 258.221 144.953, 259.513 143.345, 260.480 142.639 C 262.611 141.080, 261.971 136.964, 258.902 132.480 L 256.862 129.500 257.379 134 M 688.218 132.023 C 687.175 133.693, 687.207 134.142, 688.399 134.600 C 689.194 134.905, 690.816 134.634, 692.004 133.998 C 694.077 132.888, 694.090 132.785, 692.333 131.452 C 689.917 129.622, 689.698 129.653, 688.218 132.023 M 1093 131 C 1091.718 131.828, 1091.754 131.972, 1093.250 131.985 C 1094.213 131.993, 1095 131.550, 1095 131 C 1095 129.780, 1094.887 129.780, 1093 131 M 159.070 131.691 C 159.109 132.136, 159.527 133.400, 160 134.500 C 160.829 136.428, 160.862 136.421, 160.930 134.309 C 160.968 133.104, 160.550 131.840, 160 131.500 C 159.450 131.160, 159.032 131.246, 159.070 131.691 M 298.344 132.253 C 298.030 132.760, 297.024 132.978, 296.108 132.738 C 295.191 132.499, 293.830 132.957, 293.082 133.757 C 291.937 134.983, 291.942 135.349, 293.112 136.090 C 294.493 136.965, 295.882 137.324, 297.182 137.141 C 297.557 137.088, 299.455 137.710, 301.400 138.523 C 305.394 140.192, 309.418 140.486, 308.527 139.044 C 308.202 138.518, 307.275 138.341, 306.468 138.651 C 305.661 138.960, 305 138.686, 305 138.040 C 305 137.297, 304.218 137.113, 302.875 137.540 C 301.702 137.912, 300.997 137.813, 301.303 137.319 C 301.607 136.827, 300.687 136.328, 299.258 136.209 C 296.568 135.987, 295.334 135.332, 296.121 134.546 C 296.910 133.757, 303.424 133.708, 305.250 134.477 C 306.338 134.935, 307 134.773, 307 134.048 C 307 133.407, 306.578 133.143, 306.061 133.462 C 305.545 133.781, 304.758 133.470, 304.311 132.771 C 303.360 131.281, 299.169 130.917, 298.344 132.253 M 1088.813 131.683 C 1089.534 131.972, 1090.397 131.936, 1090.729 131.604 C 1091.061 131.272, 1090.471 131.036, 1089.417 131.079 C 1088.252 131.127, 1088.015 131.364, 1088.813 131.683 M 308.333 133.500 C 308.333 134.330, 309.265 135.033, 310.417 135.074 C 311.563 135.115, 313.512 135.337, 314.750 135.568 C 316.471 135.889, 317 135.519, 317 133.994 C 317 131.810, 314.471 131.246, 313.662 133.250 C 313.259 134.250, 313.142 134.250, 313.079 133.250 C 312.964 131.428, 308.333 131.672, 308.333 133.500 M 320.291 134.207 C 320.365 135.193, 320.455 136, 320.491 136 C 320.526 136, 321.300 135.130, 322.210 134.067 C 323.761 132.256, 323.749 132.143, 322.010 132.274 C 320.888 132.359, 320.209 133.122, 320.291 134.207 M 514 132.877 C 514 133.360, 516.138 133.547, 518.750 133.294 C 525.835 132.608, 526.198 132.167, 519.750 132.079 C 516.587 132.036, 514 132.395, 514 132.877 M 787.004 137.169 C 782.792 141.758, 782.172 143.242, 784.644 142.818 C 787.067 142.403, 788.919 140.607, 789.273 138.327 C 789.430 137.322, 789.927 135.908, 790.379 135.183 C 792.054 132.498, 790.394 133.474, 787.004 137.169 M 980.926 134.411 C 981.813 135.480, 981.816 135.996, 980.937 136.539 C 980.299 136.934, 979.334 136.636, 978.794 135.878 C 978.051 134.835, 977.959 134.953, 978.417 136.361 C 978.917 137.898, 978.626 138.123, 976.753 137.653 C 975.505 137.340, 973.812 137.557, 972.992 138.136 C 971.728 139.028, 971.757 139.106, 973.185 138.651 C 974.112 138.355, 975.012 138.501, 975.185 138.976 C 975.358 139.450, 978.200 139.246, 981.500 138.522 C 984.800 137.798, 986.728 137.159, 985.785 137.102 C 984.842 137.046, 983.589 136.100, 983 135 C 982.411 133.900, 981.440 133, 980.842 133 C 980.099 133, 980.125 133.446, 980.926 134.411 M 329 135.046 C 329.978 135.767, 330.114 136.312, 329.392 136.612 C 328.782 136.865, 327.475 137.663, 326.487 138.386 C 324.872 139.567, 325.009 139.682, 327.845 139.525 C 334.274 139.168, 335 138.969, 335 137.559 C 335 135.847, 334.454 135.489, 330.500 134.608 C 328.173 134.089, 327.837 134.187, 329 135.046 M 1082.558 134.907 C 1082.249 135.405, 1082.898 135.578, 1083.999 135.290 C 1086.334 134.679, 1086.629 134, 1084.559 134 C 1083.766 134, 1082.866 134.408, 1082.558 134.907 M 1090.295 136.448 C 1089.352 137.521, 1089.362 137.925, 1090.340 138.300 C 1091.047 138.571, 1091.653 137.958, 1091.733 136.890 C 1091.901 134.671, 1091.866 134.660, 1090.295 136.448 M 331 136.833 C 331 137.292, 331.655 137.667, 332.456 137.667 C 333.257 137.667, 333.680 137.292, 333.397 136.833 C 333.114 136.375, 332.459 136, 331.941 136 C 331.423 136, 331 136.375, 331 136.833 M 336 137 C 336 137.550, 336.477 138, 337.059 138 C 337.641 138, 337.840 137.550, 337.500 137 C 337.160 136.450, 336.684 136, 336.441 136 C 336.198 136, 336 136.450, 336 137 M 1045.679 136.711 C 1045.378 137.197, 1045.496 138.185, 1045.941 138.905 C 1046.556 139.899, 1046.927 139.927, 1047.488 139.020 C 1047.894 138.363, 1047.776 137.376, 1047.226 136.826 C 1046.666 136.266, 1045.985 136.216, 1045.679 136.711 M 1043.225 139.130 C 1043.376 139.834, 1042.975 140.430, 1042.333 140.455 C 1040.109 140.541, 1039.860 141.821, 1041.939 142.481 C 1043.089 142.846, 1043.771 143.562, 1043.456 144.072 C 1043.140 144.582, 1043.332 145, 1043.882 145 C 1045.666 145, 1046.034 143.227, 1044.382 142.593 C 1043.129 142.112, 1043.031 141.668, 1043.936 140.577 C 1044.752 139.594, 1044.778 138.981, 1044.024 138.515 C 1043.433 138.150, 1043.074 138.427, 1043.225 139.130 M 1084.654 139.459 C 1084.165 140.733, 1083.606 140.860, 1082.081 140.043 C 1079.629 138.731, 1077.984 138.697, 1080 140 C 1081.302 140.841, 1081.306 140.971, 1080.027 140.985 C 1079.102 140.994, 1079.474 141.651, 1081.027 142.750 C 1083.114 144.227, 1092.753 145.434, 1091.375 144.045 C 1091.127 143.795, 1092.404 142.813, 1094.212 141.862 C 1096.911 140.442, 1097.097 140.159, 1095.250 140.279 C 1094.013 140.360, 1093 140.806, 1093 141.272 C 1093 141.737, 1092.550 141.840, 1092 141.500 C 1091.450 141.160, 1091 141.311, 1091 141.836 C 1091 142.361, 1089.196 142.962, 1086.991 143.172 C 1084.531 143.407, 1083.119 143.158, 1083.336 142.527 C 1083.531 141.962, 1085.112 141.504, 1086.848 141.510 C 1088.585 141.515, 1089.836 141.065, 1089.628 140.510 C 1089.420 139.954, 1088.672 139.636, 1087.967 139.803 C 1087.261 139.969, 1086.367 139.594, 1085.981 138.969 C 1085.504 138.197, 1085.078 138.354, 1084.654 139.459 M 1098.638 139.500 C 1098.955 140.325, 1099.391 141, 1099.607 141 C 1099.823 141, 1100 140.325, 1100 139.500 C 1100 138.675, 1099.564 138, 1099.031 138 C 1098.499 138, 1098.322 138.675, 1098.638 139.500 M 318.500 140 C 318.160 140.550, 318.332 141, 318.882 141 C 319.432 141, 320.160 140.550, 320.500 140 C 320.840 139.450, 320.668 139, 320.118 139 C 319.568 139, 318.840 139.450, 318.500 140 M 290.546 140.925 C 290.230 141.437, 290.911 142.154, 292.061 142.519 C 294.899 143.420, 295.652 142.419, 293.146 141.078 C 291.928 140.426, 290.892 140.365, 290.546 140.925 M 512.813 140.683 C 513.534 140.972, 514.397 140.936, 514.729 140.604 C 515.061 140.272, 514.471 140.036, 513.417 140.079 C 512.252 140.127, 512.015 140.364, 512.813 140.683 M 678.667 140.667 C 678.300 141.033, 678 141.798, 678 142.367 C 678 142.993, 678.466 142.934, 679.183 142.217 C 679.834 141.566, 680.134 140.801, 679.850 140.517 C 679.566 140.232, 679.033 140.300, 678.667 140.667 M 727.500 141 C 727.160 141.550, 727.359 142, 727.941 142 C 728.523 142, 729 141.550, 729 141 C 729 140.450, 728.802 140, 728.559 140 C 728.316 140, 727.840 140.450, 727.500 141 M 731.907 141.612 C 731.171 142.498, 729.654 143.619, 728.535 144.102 C 726.657 144.912, 726.684 144.962, 728.885 144.740 C 730.197 144.608, 731.940 143.488, 732.757 142.250 C 734.470 139.658, 733.890 139.223, 731.907 141.612 M 1052.647 141.523 C 1053.161 142.862, 1052.998 143.117, 1052.015 142.510 C 1051.108 141.949, 1050.929 142.076, 1051.447 142.914 C 1051.862 143.586, 1052.832 143.895, 1053.601 143.600 C 1054.371 143.304, 1055 143.568, 1055 144.186 C 1055 144.824, 1055.791 144.594, 1056.829 143.655 C 1059.305 141.414, 1060.968 141.570, 1060.500 144 C 1060.288 145.100, 1060.587 146, 1061.164 146 C 1061.742 146, 1061.968 145.358, 1061.666 144.573 C 1061.365 143.788, 1061.732 142.637, 1062.482 142.015 C 1063.558 141.122, 1063.915 141.361, 1064.173 143.149 C 1064.640 146.384, 1071.528 146.850, 1074.152 143.825 C 1075.145 142.679, 1075.670 141.275, 1075.318 140.705 C 1074.945 140.102, 1073.661 140.889, 1072.249 142.584 C 1070.473 144.719, 1070.124 144.897, 1070.946 143.250 C 1072.240 140.660, 1071.532 140.325, 1069.357 142.500 C 1067.708 144.149, 1065.534 144.563, 1066.469 143.050 C 1067.136 141.971, 1063.584 139.750, 1062.663 140.670 C 1061.517 141.816, 1054.622 141.932, 1053.292 140.827 C 1052.234 139.950, 1052.099 140.095, 1052.647 141.523 M 272.086 141.500 C 272.190 143.394, 273.856 146.584, 273.914 145 C 273.945 144.175, 273.533 142.825, 273 142 C 272.467 141.175, 272.055 140.950, 272.086 141.500 M 283.202 144.072 C 283.367 146.229, 284.266 147.635, 286.218 148.788 C 287.748 149.692, 289 151.009, 289 151.716 C 289 152.422, 289.863 153, 290.917 153 C 291.971 153, 292.985 153.454, 293.170 154.010 C 293.355 154.565, 294.096 154.076, 294.816 152.922 C 296.031 150.978, 295.958 150.878, 293.821 151.557 C 291.817 152.193, 291.684 152.085, 292.806 150.733 C 294.195 149.060, 292.834 147.367, 291.008 148.495 C 290.462 148.832, 289.225 148.648, 288.258 148.085 C 286.763 147.214, 286.949 147.039, 289.500 146.912 C 291.150 146.830, 292.842 146.818, 293.261 146.885 C 295.351 147.220, 291.278 143.141, 288.530 142.147 C 283.696 140.399, 282.943 140.671, 283.202 144.072 M 298.575 141.758 C 297.106 143.227, 298.345 144, 302.167 144 C 304.458 144, 306.094 143.761, 305.802 143.469 C 304.847 142.514, 299.165 141.169, 298.575 141.758 M 962.500 142 C 962.840 142.550, 963.316 143, 963.559 143 C 963.802 143, 964 142.550, 964 142 C 964 141.450, 963.523 141, 962.941 141 C 962.359 141, 962.160 141.450, 962.500 142 M 990 142.059 C 990 142.641, 990.450 142.840, 991 142.500 C 991.550 142.160, 992 141.684, 992 141.441 C 992 141.198, 991.550 141, 991 141 C 990.450 141, 990 141.477, 990 142.059 M 336.923 142.750 C 336.881 143.162, 336.696 144.287, 336.512 145.250 C 336.328 146.213, 336.757 147, 337.466 147 C 338.175 147, 339.315 147.675, 340 148.500 C 341.007 149.714, 340.973 150, 339.822 150 C 339.040 150, 337.972 149.574, 337.450 149.054 C 336.852 148.459, 335.649 148.751, 334.204 149.843 C 332.371 151.228, 332.082 152.048, 332.771 153.911 L 333.634 156.243 336.443 153.640 C 337.988 152.209, 339.598 151.251, 340.021 151.513 C 340.444 151.775, 341.059 151.288, 341.388 150.431 C 341.717 149.574, 342.327 149.084, 342.743 149.341 C 343.159 149.598, 343.500 148.507, 343.500 146.916 C 343.500 145.324, 342.914 143.797, 342.198 143.523 C 341.482 143.248, 341.147 143.429, 341.454 143.926 C 342.114 144.994, 340.012 145.893, 338.313 145.270 C 337.660 145.030, 337.371 144.197, 337.670 143.417 C 337.969 142.638, 337.941 142, 337.607 142 C 337.273 142, 336.966 142.338, 336.923 142.750 M 955.638 143.500 C 955.955 144.325, 956.671 145, 957.229 145 C 957.815 145, 957.718 144.365, 957 143.500 C 956.315 142.675, 955.599 142, 955.409 142 C 955.219 142, 955.322 142.675, 955.638 143.500 M 1096.032 143.939 C 1095.445 145.037, 1095.380 146.117, 1095.883 146.428 C 1096.372 146.730, 1096.985 145.857, 1097.247 144.488 C 1097.818 141.499, 1097.432 141.324, 1096.032 143.939 M 1100.564 143.707 C 1100.022 145.132, 1100.136 145.247, 1101.124 144.267 C 1101.808 143.588, 1102.115 142.781, 1101.807 142.474 C 1101.499 142.166, 1100.940 142.721, 1100.564 143.707 M 321.498 144.003 C 321.143 144.578, 321.747 144.874, 322.913 144.695 C 325.785 144.257, 326.758 143, 324.226 143 C 323.066 143, 321.839 143.451, 321.498 144.003 M 327.603 143.833 C 327.320 144.292, 328.661 144.667, 330.583 144.667 C 332.779 144.667, 333.599 144.363, 332.789 143.849 C 331.110 142.783, 328.257 142.774, 327.603 143.833 M 746.260 145.576 C 744.477 146.981, 742.655 147.905, 742.210 147.630 C 741.765 147.354, 740.874 147.971, 740.232 149 C 739.228 150.609, 739.752 150.514, 743.966 148.328 C 746.663 146.929, 749.109 145.158, 749.403 144.392 C 750.102 142.570, 750.047 142.591, 746.260 145.576 M 985 144.347 C 987.745 145.793, 988.553 145.704, 987.541 144.067 C 987.179 143.480, 985.896 143.007, 984.691 143.015 C 982.590 143.029, 982.602 143.083, 985 144.347 M 1035.713 147.836 C 1032.444 152.387, 1030.254 157, 1031.362 157 C 1031.636 157, 1032.852 155.013, 1034.065 152.583 C 1035.631 149.450, 1036.740 148.315, 1037.886 148.678 C 1039.259 149.112, 1039.280 149.033, 1038.028 148.148 C 1036.758 147.250, 1036.791 147.017, 1038.272 146.449 C 1039.216 146.087, 1039.692 145.311, 1039.330 144.725 C 1038.917 144.057, 1039.292 143.898, 1040.336 144.299 C 1041.251 144.650, 1042 144.501, 1042 143.969 C 1042 141.517, 1038.870 143.443, 1035.713 147.836 M 1047.991 144.511 C 1046.962 145.750, 1047.111 146, 1048.878 146 C 1050.045 146, 1051 145.577, 1051 145.059 C 1051 143.327, 1049.240 143.006, 1047.991 144.511 M 778.284 145.537 C 777.727 146.617, 777.472 148.063, 777.718 148.750 C 777.965 149.438, 777.481 150, 776.642 150 C 775.063 150, 773.444 151.777, 774.271 152.604 C 775.041 153.375, 779.847 150.841, 780.413 149.366 C 780.701 148.616, 780.568 147.006, 780.117 145.788 C 779.321 143.635, 779.271 143.628, 778.284 145.537 M 997.399 146.547 C 996.622 149.640, 996.921 149.982, 999.500 148.945 C 1001.198 148.262, 1001.236 148.130, 999.750 148.070 C 998.788 148.032, 998 147.502, 998 146.893 C 998 146.284, 998.652 146.036, 999.449 146.342 C 1000.418 146.714, 1000.714 146.418, 1000.342 145.449 C 999.485 143.215, 998.106 143.729, 997.399 146.547 M 1056.989 145.513 C 1056.288 146.357, 1056.004 147.337, 1056.357 147.691 C 1056.711 148.044, 1057 147.808, 1057 147.167 C 1057 146.525, 1057.505 146, 1058.122 146 C 1058.902 146, 1058.867 146.455, 1058.009 147.489 C 1057.329 148.308, 1056.355 148.719, 1055.843 148.403 C 1055.331 148.087, 1054.171 148.429, 1053.264 149.164 C 1052.089 150.117, 1051.832 150.141, 1052.367 149.250 C 1052.793 148.541, 1052.623 148, 1051.976 148 C 1050.101 148, 1051.430 150.245, 1053.830 151.133 C 1055.476 151.742, 1056.471 151.473, 1057.644 150.102 C 1058.518 149.082, 1059.967 148.423, 1060.866 148.637 C 1063.066 149.161, 1065.430 147.505, 1064.539 146.063 C 1064.002 145.194, 1063.441 145.219, 1062.303 146.164 C 1061.058 147.197, 1060.556 147.114, 1059.523 145.701 C 1058.397 144.161, 1058.128 144.141, 1056.989 145.513 M 1053 146 C 1053 146.550, 1053.450 147, 1054 147 C 1054.550 147, 1055 146.550, 1055 146 C 1055 145.450, 1054.550 145, 1054 145 C 1053.450 145, 1053 145.450, 1053 146 M 1106.347 146.831 C 1107.259 147.838, 1107.761 148.906, 1107.463 149.204 C 1106.445 150.222, 1110.775 150.758, 1112.139 149.783 C 1113.179 149.040, 1113.088 148.944, 1111.752 149.374 C 1110.597 149.745, 1109.455 149.098, 1108.387 147.468 C 1107.498 146.111, 1106.302 145, 1105.730 145 C 1105.158 145, 1105.436 145.824, 1106.347 146.831 M 1089 147 C 1088.099 147.582, 1087.975 147.975, 1088.691 147.985 C 1089.346 147.993, 1090.160 147.550, 1090.500 147 C 1091.267 145.758, 1090.921 145.758, 1089 147 M 830.015 147.737 C 830.058 149.843, 832.341 151.486, 837.409 153.054 C 840.484 154.005, 843 154.638, 843 154.460 C 843 154.282, 841.676 153.193, 840.058 152.041 C 836.432 149.459, 829.995 146.700, 830.015 147.737 M 979.564 148.293 C 979.940 149.279, 980.499 149.834, 980.807 149.526 C 981.115 149.219, 980.808 148.412, 980.124 147.733 C 979.136 146.753, 979.022 146.868, 979.564 148.293 M 1042.558 147.907 C 1042.249 148.405, 1042.898 148.578, 1043.999 148.290 C 1046.334 147.679, 1046.629 147, 1044.559 147 C 1043.766 147, 1042.866 147.408, 1042.558 147.907 M 1071.756 147.664 C 1072.447 147.943, 1072.785 148.539, 1072.507 148.988 C 1072.230 149.437, 1073.342 150.272, 1074.979 150.843 C 1077.169 151.606, 1078.136 151.566, 1078.638 150.690 C 1079.014 150.036, 1078.962 149.824, 1078.523 150.220 C 1078.085 150.617, 1076.480 150.054, 1074.959 148.970 C 1073.437 147.887, 1071.811 147.036, 1071.346 147.079 C 1070.881 147.122, 1071.065 147.386, 1071.756 147.664 M 112.813 148.683 C 113.534 148.972, 114.397 148.936, 114.729 148.604 C 115.061 148.272, 114.471 148.036, 113.417 148.079 C 112.252 148.127, 112.015 148.364, 112.813 148.683 M 307.291 149.452 C 306.625 150.209, 305.789 151.992, 305.432 153.414 C 305.075 154.836, 304.494 155.986, 304.142 155.968 C 302.680 155.896, 300.086 153.243, 300.766 152.516 C 301.169 152.083, 300.547 152.224, 299.381 152.829 C 298.216 153.435, 296.979 153.645, 296.631 153.298 C 296.284 152.951, 296 153.156, 296 153.754 C 296 154.352, 297.355 155.139, 299.010 155.502 C 300.666 155.866, 302.732 156.875, 303.601 157.744 C 304.822 158.965, 305.357 159.040, 305.953 158.077 C 306.377 157.391, 307.115 156.755, 307.593 156.665 C 308.071 156.574, 308.514 156.050, 308.579 155.500 C 308.643 154.950, 308.795 154.275, 308.917 154 C 309.038 153.725, 309.301 152.262, 309.501 150.750 C 309.897 147.746, 309.167 147.317, 307.291 149.452 M 316.048 149.250 C 316.074 149.938, 316.867 152.075, 317.808 154 C 319.187 156.819, 320.103 157.507, 322.510 157.536 C 324.155 157.557, 326.132 157.964, 326.905 158.441 C 327.832 159.014, 328.081 158.940, 327.638 158.224 C 327.269 157.627, 327.425 156.856, 327.984 156.510 C 328.543 156.165, 329 155.403, 329 154.819 C 329 154.104, 328.549 154.129, 327.627 154.895 C 326.871 155.522, 325.521 155.754, 324.627 155.410 C 323.728 155.065, 323 155.282, 323 155.893 C 323 156.502, 322.523 157, 321.941 157 C 321.359 157, 321.141 156.581, 321.457 156.069 C 321.774 155.557, 321.557 154.844, 320.976 154.485 C 320.394 154.126, 320.184 152.997, 320.507 151.977 C 320.899 150.742, 320.433 149.767, 319.114 149.061 C 316.551 147.689, 315.989 147.724, 316.048 149.250 M 517 149.139 C 514.525 149.645, 511.521 149.889, 510.324 149.682 C 508.705 149.402, 508.183 149.778, 508.286 151.153 C 508.373 152.300, 509.008 152.838, 509.963 152.573 C 510.808 152.338, 513.525 151.837, 516 151.460 C 518.475 151.083, 521.058 150.323, 521.741 149.772 C 522.423 149.221, 525.123 149.024, 527.741 149.334 C 531.020 149.723, 531.723 149.635, 530 149.049 C 526.787 147.957, 522.642 147.986, 517 149.139 M 535.694 148.639 C 534.768 149.565, 535.883 151, 537.528 151 C 538.370 151, 538.706 150.396, 538.362 149.500 C 537.751 147.909, 536.748 147.586, 535.694 148.639 M 692.603 148.834 C 692.284 149.350, 692.943 150.013, 694.068 150.308 C 695.314 150.633, 695.970 150.409, 695.745 149.734 C 695.243 148.230, 693.317 147.678, 692.603 148.834 M 129.813 149.683 C 130.534 149.972, 131.397 149.936, 131.729 149.604 C 132.061 149.272, 131.471 149.036, 130.417 149.079 C 129.252 149.127, 129.015 149.364, 129.813 149.683 M 549.750 149.706 C 550.987 149.944, 553.013 149.944, 554.250 149.706 C 555.487 149.467, 554.475 149.272, 552 149.272 C 549.525 149.272, 548.513 149.467, 549.750 149.706 M 962.557 150.418 C 964.652 151.950, 965.601 151.782, 964.541 150.067 C 964.179 149.480, 963.148 149, 962.250 149 C 960.885 149, 960.935 149.232, 962.557 150.418 M 1064.620 150.548 C 1064.345 151.265, 1065.133 151.983, 1066.480 152.241 C 1068.141 152.558, 1068.668 152.299, 1068.302 151.344 C 1068.018 150.605, 1068.284 150, 1068.893 150 C 1069.502 150, 1070 150.450, 1070 151 C 1070 151.550, 1070.436 152, 1070.969 152 C 1071.501 152, 1071.690 151.356, 1071.388 150.569 C 1070.716 148.818, 1065.290 148.801, 1064.620 150.548 M 522.500 151 C 522.840 151.550, 524.243 152, 525.618 152 C 527.030 152, 527.849 151.565, 527.500 151 C 527.160 150.450, 525.757 150, 524.382 150 C 522.970 150, 522.151 150.435, 522.500 151 M 714 151 C 715.305 151.843, 715.289 151.971, 713.872 151.985 C 712.977 151.993, 711.685 152.675, 711 153.500 C 710.140 154.536, 710.102 155, 710.878 155 C 711.495 155, 712 154.602, 712 154.117 C 712 153.631, 712.900 152.998, 714 152.710 C 716.462 152.066, 716.654 149.994, 714.250 150.015 C 712.754 150.028, 712.718 150.172, 714 151 M 968 150.882 C 968 151.432, 968.450 152.160, 969 152.500 C 969.550 152.840, 970 152.668, 970 152.118 C 970 151.568, 969.550 150.840, 969 150.500 C 968.450 150.160, 968 150.332, 968 150.882 M 1092.570 150.887 C 1092.269 151.374, 1092.805 152.387, 1093.761 153.137 C 1095.297 154.341, 1095.355 154.314, 1094.259 152.908 C 1093.576 152.032, 1093.313 151.020, 1093.675 150.658 C 1094.037 150.296, 1094.060 150, 1093.726 150 C 1093.391 150, 1092.871 150.399, 1092.570 150.887 M 1097.878 151.654 C 1096.612 153.186, 1096.693 153.207, 1098.881 151.911 C 1100.662 150.855, 1101.371 150.801, 1101.695 151.694 C 1102.131 152.892, 1105 152.381, 1105 151.106 C 1105 149.615, 1099.193 150.063, 1097.878 151.654 M 687 152.059 C 687 152.641, 687.450 152.840, 688 152.500 C 688.550 152.160, 689 151.684, 689 151.441 C 689 151.198, 688.550 151, 688 151 C 687.450 151, 687 151.477, 687 152.059 M 1062 151.941 C 1062 152.459, 1062.445 153.157, 1062.989 153.493 C 1063.555 153.843, 1063.723 153.442, 1063.382 152.552 C 1062.717 150.820, 1062 150.503, 1062 151.941 M 328 153 C 329.958 154.266, 331.282 154.266, 330.500 153 C 330.160 152.450, 329.121 152.007, 328.191 152.015 C 326.734 152.029, 326.707 152.165, 328 153 M 515.589 152.856 C 515.298 153.326, 516.172 153.499, 517.530 153.239 C 518.889 152.979, 520 152.594, 520 152.383 C 520 151.610, 516.101 152.027, 515.589 152.856 M 704 153.193 C 704 154.069, 703.325 155.045, 702.500 155.362 C 701.528 155.735, 700.995 155.333, 700.985 154.219 C 700.972 152.774, 700.821 152.734, 700.042 153.966 C 698.791 155.945, 700.386 157.711, 703.235 157.502 C 705.727 157.318, 706.840 154.440, 705.094 152.694 C 704.302 151.902, 704 152.040, 704 153.193 M 1003.500 153 C 1003.840 153.550, 1003.676 154, 1003.135 154 C 1002.594 154, 1003.108 155.074, 1004.277 156.387 C 1006.053 158.380, 1006.782 158.601, 1008.702 157.726 C 1011.507 156.448, 1011.664 154.426, 1009.066 153.035 C 1006.594 151.712, 1002.689 151.688, 1003.500 153 M 1052.564 153.707 C 1052.022 155.132, 1052.136 155.247, 1053.124 154.267 C 1053.808 153.588, 1054.115 152.781, 1053.807 152.474 C 1053.499 152.166, 1052.940 152.721, 1052.564 153.707 M 1078 153.009 L 1075.500 153.647 1077.825 154.415 C 1080.249 155.215, 1081.460 154.748, 1080.854 153.248 C 1080.659 152.765, 1079.375 152.658, 1078 153.009 M 1090 153 C 1090 153.550, 1090.477 154, 1091.059 154 C 1091.641 154, 1091.840 153.550, 1091.500 153 C 1091.160 152.450, 1090.684 152, 1090.441 152 C 1090.198 152, 1090 152.450, 1090 153 M 1105.875 152.500 C 1105.806 152.775, 1105.694 153.412, 1105.625 153.917 C 1105.428 155.365, 1104 156.463, 1104 155.167 C 1104 154.525, 1103.454 154, 1102.786 154 C 1101.973 154, 1102.080 154.508, 1103.108 155.537 C 1105.022 157.450, 1108 156.449, 1108 153.893 C 1108 152.260, 1106.226 151.097, 1105.875 152.500 M 519.500 154.066 C 516.750 154.519, 511.886 155.175, 508.691 155.524 C 503.457 156.096, 502.912 156.374, 503.191 158.329 C 503.397 159.778, 504.165 160.464, 505.500 160.391 C 512.505 160.007, 540.155 156.488, 538.605 156.177 C 537.089 155.873, 536.989 155.621, 538.105 154.914 C 539.001 154.347, 537.293 154.025, 533.332 154.015 C 529.939 154.007, 526.564 153.830, 525.832 153.622 C 525.099 153.414, 522.250 153.614, 519.500 154.066 M 720 154.059 C 720 154.641, 720.450 154.840, 721 154.500 C 721.550 154.160, 722 153.684, 722 153.441 C 722 153.198, 721.550 153, 721 153 C 720.450 153, 720 153.477, 720 154.059 M 1038.667 153.667 C 1038.300 154.033, 1038 154.798, 1038 155.367 C 1038 155.993, 1038.466 155.934, 1039.183 155.217 C 1039.834 154.566, 1040.134 153.801, 1039.850 153.517 C 1039.566 153.232, 1039.033 153.300, 1038.667 153.667 M 974.583 154.866 C 974.152 155.563, 974.070 156.403, 974.400 156.733 C 975.295 157.628, 976.271 156.312, 975.787 154.862 C 975.449 153.846, 975.213 153.846, 974.583 154.866 M 330 156.500 C 330 157.325, 330.177 158, 330.393 158 C 330.609 158, 331.045 157.325, 331.362 156.500 C 331.678 155.675, 331.501 155, 330.969 155 C 330.436 155, 330 155.675, 330 156.500 M 639 156.500 C 638.246 157.408, 638.166 158, 638.796 158 C 640.633 158, 643 156.814, 643 155.893 C 643 154.462, 640.359 154.863, 639 156.500 M 712.500 156 C 712.160 156.550, 711.057 157, 710.048 157 C 709.039 157, 707.955 157.675, 707.638 158.500 C 707.322 159.325, 706.374 160, 705.531 160 C 704.689 160, 704 160.450, 704 161 C 704 162.147, 711.281 162.172, 715 161.038 C 717.702 160.214, 716.725 159.452, 712 158.700 C 709.653 158.327, 709.698 158.255, 712.734 157.529 C 714.512 157.104, 715.723 156.361, 715.425 155.878 C 714.700 154.705, 713.263 154.765, 712.500 156 M 740 156.500 C 740 157.325, 739.550 158, 739 158 C 738.450 158, 738 158.675, 738 159.500 C 738 161.800, 739.778 161.281, 740.567 158.750 C 740.954 157.512, 741.771 156.169, 742.385 155.765 C 743.081 155.306, 742.843 155.025, 741.750 155.015 C 740.788 155.007, 740 155.675, 740 156.500 M 1056.459 156.067 C 1055.651 157.374, 1055.965 157.713, 1058.396 158.155 C 1059.439 158.345, 1060.510 157.875, 1060.776 157.111 C 1061.071 156.264, 1060.818 155.994, 1060.130 156.420 C 1059.508 156.804, 1059 156.641, 1059 156.059 C 1059 154.686, 1057.309 154.691, 1056.459 156.067 M 1068 155.906 C 1068 156.405, 1068.900 156.577, 1070 156.290 C 1071.100 156.002, 1072 155.594, 1072 155.383 C 1072 155.173, 1071.100 155, 1070 155 C 1068.900 155, 1068 155.408, 1068 155.906 M 1077.500 157 C 1077.160 157.550, 1077.835 158, 1079 158 C 1080.165 158, 1080.840 157.550, 1080.500 157 C 1080.160 156.450, 1079.485 156, 1079 156 C 1078.515 156, 1077.840 156.450, 1077.500 157 M 1095.247 157.241 C 1095.668 158.505, 1099 159.204, 1099 158.028 C 1099 157.591, 1098.074 156.991, 1096.943 156.695 C 1095.711 156.373, 1095.031 156.592, 1095.247 157.241 M 687 157.941 C 687 158.459, 687.450 159.160, 688 159.500 C 688.550 159.840, 689 159.416, 689 158.559 C 689 157.702, 688.550 157, 688 157 C 687.450 157, 687 157.423, 687 157.941 M 1050 158.059 C 1050 158.641, 1050.450 158.840, 1051 158.500 C 1051.550 158.160, 1052 157.684, 1052 157.441 C 1052 157.198, 1051.550 157, 1051 157 C 1050.450 157, 1050 157.477, 1050 158.059 M 1107.500 158 C 1107.840 158.550, 1108.568 159, 1109.118 159 C 1109.668 159, 1109.840 158.550, 1109.500 158 C 1109.160 157.450, 1108.432 157, 1107.882 157 C 1107.332 157, 1107.160 157.450, 1107.500 158 M 640.750 158.689 C 638.030 159.400, 638.688 160.500, 641.833 160.500 C 643.433 160.500, 644.667 159.956, 644.667 159.250 C 644.667 157.980, 643.889 157.869, 640.750 158.689 M 797.058 159.122 C 782.944 160.757, 787.526 161.771, 808.409 161.635 C 819.727 161.561, 828.990 161.236, 828.993 160.913 C 829 160.325, 808.823 157.881, 806 158.128 C 805.175 158.200, 801.151 158.647, 797.058 159.122 M 992.638 160.500 C 992.955 161.325, 993.671 162, 994.229 162 C 994.815 162, 994.718 161.365, 994 160.500 C 993.315 159.675, 992.599 159, 992.409 159 C 992.219 159, 992.322 159.675, 992.638 160.500 M 701.500 161 C 701.840 161.550, 702.316 162, 702.559 162 C 702.802 162, 703 161.550, 703 161 C 703 160.450, 702.523 160, 701.941 160 C 701.359 160, 701.160 160.450, 701.500 161 M 1105 161 C 1105 161.550, 1105.450 162, 1106 162 C 1106.550 162, 1107 161.550, 1107 161 C 1107 160.450, 1106.550 160, 1106 160 C 1105.450 160, 1105 160.450, 1105 161 M 1.269 161.693 C 2.242 161.947, 3.592 161.930, 4.269 161.656 C 4.946 161.382, 4.150 161.175, 2.500 161.195 C 0.850 161.215, 0.296 161.439, 1.269 161.693 M 9.813 161.683 C 10.534 161.972, 11.397 161.936, 11.729 161.604 C 12.061 161.272, 11.471 161.036, 10.417 161.079 C 9.252 161.127, 9.015 161.364, 9.813 161.683 " stroke="none" fill="black" fill-rule="evenodd"/>
</svg>